<svg version="1.1" viewBox="0 0 2048 1536" width="100" height="100" xmlns="http://www.w3.org/2000/svg"><path transform="translate(0)" d="m0 0h2048v1536h-2048z" fill="#FDFDFD" /><path transform="translate(1759,389)" d="m0 0h9l2 2v753l-18 1h-708l-21-1-7-2-1-48-1-184 9-2h5l1 1-1 61v74l1 86 4 1 529 1h111l82-1 2-1 1-64v-661l-1-2h-728l-1 82 1 141h-12l-2-1v-215l1-20z" fill="#1F80EA" /><path transform="translate(1349,651)" d="m0 0h58l1 38v35l-1 159-1 1h-29l-34-1v-230z" fill="#A1C6FB" /><path transform="translate(1302,651)" d="m0 0h23l2 1v230h-61l-1-1v-89l1-140z" fill="#1F80EA" /><path transform="translate(1453,651)" d="m0 0h29l1 1v86l-1 146h-36l-24-1-1-43v-120l1-67 1-1z" fill="#A1C6FB" /><path transform="translate(766,687)" d="m0 0h38l5 5 4 11 3 15 1 16-5 15v11l5 24 3 18-1 17-4 15-4 6-9 4-15 3h-40l-5-2-3-4-2-9v-119l1-23 5-2z" fill="#1F80EA" /><path transform="translate(656,686)" d="m0 0h31l7 4 5 10 3 14 1 10v86l-2 18-3 10-7 6-11 4-6 1h-21l-13-3-8-5-5-10-2-9-1-10v-80l2-31 3-7 4-4 15-3z" fill="#FAFBFD" /><path transform="translate(945,687)" d="m0 0h42l10 2 5 5 4 7 2 11 1 12v21l-3 9-13 9-2 3 1 9 11 36 11 33 1 4-12-2-5-4-6-21-10-33-6-11-2-2-17-3-12-2 1 47 1 18v12l-5 1-13-1-1-85v-41l1-29 5-3z" fill="#1F80EA" /><path transform="translate(1072,686)" d="m0 0h7l5 4 10 34 11 49 8 40 8 31 1 4-1 1-17-1-1-1-3-23-3-12-2-3-40-1-3 6-5 29-2 3-4 1h-11l3-12 5-23 10-53 11-44 7-23 4-5z" fill="#1F80EA" /><path transform="translate(656,686)" d="m0 0h31l7 4 5 10 3 14 1 10v86l-2 18-3 10-7 6-11 4-6 1h-21l-13-3-8-5-5-10-2-9-1-10v-80l2-31 3-7 4-4 15-3zm0 9-9 2-6 4-2 3-1 19v58l1 38 3 10 5 7 5 2 7 1 16-1 8-3 4-6 2-14v-98l-2-14-4-6-9-2z" fill="#1F80EA" /><path transform="translate(754,770)" d="m0 0h36l8 3 3 4 3 21v19l-2 11-6 7-11 3-8 1h-12l-8-2-4-6-1-4v-53z" fill="#F8FAFD" /><path transform="translate(951,696)" d="m0 0h28l11 4 4 8 1 6v23l-4 15-4 7-4 3h-37l-1-1-1-9v-24l1-28 2-3z" fill="#F9FBFD" /><path transform="translate(839,688)" d="m0 0h71l-1 6-5 3-25 1 1 147-1 1h-16v-109l-1-34-1-5-20-1-4-2v-5z" fill="#1F80EA" /><path transform="translate(767,696)" d="m0 0h22l7 2 4 6 1 8v20l-2 20-4 5-23 2h-15l-5-3v-56l5-3z" fill="#F8FAFD" /><path transform="translate(1076,698)" d="m0 0 3 1 4 28 5 26 7 41v8l-5 1-35-1 1-12 9-49 10-42z" fill="#F7FAFD" /><path transform="translate(1146,687)" d="m0 0h13v28l1 38v68l-1 27h-14l-1-30v-130z" fill="#1F80EA" /><path transform="translate(583,685)" d="m0 0h7v90l-1 50-1 11-2 4-15 6-5 1h-13l-4-3 1-5 5-2 15-3 3-2 1-5 1-24 2-100v-16z" fill="#1F80EA" /><path transform="translate(1215,686)" d="m0 0h5l-1 7-12 23-12 22-11 19-1 3v7l8 16 11 21 20 36 2 8h-10l-7-3-11-21-22-46-5-13 2-6 9-22 12-23 9-16 6-8 3-3z" fill="#1F80EA" /><path transform="translate(1076,698)" d="m0 0 3 1 4 28v5l-2-4-1-7-4-1-1 4-1-2-3 3-2 7-1-4 7-29z" fill="#A2C7FC" /><path transform="translate(1032,835)" d="m0 0 1 4-3 8h10v1l-11 2h-4v-2h2l2-5z" fill="#A2C7FC" /></svg>