<svg xmlns="http://www.w3.org/2000/svg" xmlns:v="https://svgstorm.com"
viewBox = "0 0 844 296"
width="844"
height="296">
<g fill="None" fill-opacity="0.0" stroke="#000000" stroke-opacity="0.00" stroke-width="0.3"><path d="
M 0.00 296.00 
L 844.00 296.00
L 844.00 0.00
L 0.00 0.00
L 0.00 296.00
M 109.00 29.00 
C 124.38 27.61 140.55 29.00 156.00 29.00 C 171.45 29.00 187.62 27.61 203.00 29.00
C 209.45 29.95 210.23 32.65 216.00 35.00
C 213.77 38.20 217.92 43.44 217.00 50.00 C 216.08 56.56 217.69 65.25 217.00 72.00
C 221.99 72.73 217.47 86.21 219.00 91.00 C 220.53 95.79 217.81 105.89 217.00 110.00
C 258.32 106.26 300.47 111.34 342.00 110.00 C 383.53 108.66 426.46 109.88 468.00 110.00 C 509.54 110.12 551.66 108.30 593.00 110.00 C 634.34 111.70 677.84 105.18 718.00 111.00
C 720.09 111.08 721.55 110.60 723.00 112.00
C 723.50 112.00 724.00 112.00 724.00 112.00
C 738.86 112.56 749.60 126.64 754.92 140.08 C 760.24 153.51 756.98 176.92 748.00 189.00
C 746.01 191.67 743.60 194.03 741.00 196.00
C 740.09 196.69 739.05 197.61 738.00 198.00
C 737.56 198.16 737.00 198.00 737.00 198.00
C 728.46 211.10 707.92 204.62 693.00 206.00 C 678.08 207.38 656.42 205.38 640.00 206.00 C 623.58 206.62 604.09 205.72 587.00 206.00 C 569.91 206.28 551.37 205.89 534.00 206.00 C 516.63 206.11 498.46 205.97 481.00 206.00 C 463.54 206.03 446.52 206.04 429.00 206.00 C 411.48 205.96 393.59 206.13 376.00 206.00 C 358.41 205.87 340.61 206.32 323.00 206.00 C 305.39 205.68 287.59 206.71 270.00 206.00 C 252.41 205.29 234.51 207.58 217.00 206.00
C 217.01 226.18 217.62 247.94 216.00 267.00
C 212.79 268.19 210.13 270.79 209.00 274.00
C 207.38 272.17 205.86 274.09 204.00 274.00
C 203.53 274.12 203.00 274.00 203.00 274.00
C 196.01 279.17 181.13 273.50 172.00 275.00 C 162.87 276.50 149.64 274.71 140.00 275.00 C 130.36 275.29 117.81 276.18 109.00 274.00
C 107.24 273.99 107.18 273.53 106.00 273.00
C 103.74 271.98 102.79 271.37 101.00 270.00
C 94.43 264.96 94.87 260.59 95.00 252.00 C 95.13 243.41 95.04 233.64 95.00 225.00 C 94.96 216.36 95.23 206.45 95.00 198.00 C 94.77 189.55 95.60 179.96 95.00 172.00 C 94.40 164.04 96.32 151.95 95.00 145.00 C 93.68 138.05 98.84 123.14 93.00 120.00
C 92.54 114.96 92.54 109.04 93.00 104.00
C 98.30 101.15 93.76 88.87 95.00 83.00 C 96.24 77.13 94.08 66.31 95.00 60.00 C 95.92 53.69 93.78 44.11 95.22 38.78 C 96.65 33.44 102.45 31.88 107.00 30.00
C 102.66 28.26 109.96 26.51 112.00 27.00
C 111.76 28.67 109.15 27.17 109.00 29.00 Z"/>
</g>
<g fill="None" fill-opacity="0.0" stroke="#D7D7D7" stroke-opacity="0.03" stroke-width="0.3"><path d="
M 107.00 30.00 
C 107.40 29.80 108.50 30.00 109.00 30.00
C 109.23 29.66 109.00 29.00 109.00 29.00
C 109.15 27.17 111.76 28.67 112.00 27.00
C 109.96 26.51 102.66 28.26 107.00 30.00 Z"/>
</g>
<g fill="None" fill-opacity="0.0" stroke="#848484" stroke-opacity="0.61" stroke-width="0.3"><path d="
M 109.00 30.00 
C 110.00 30.00 111.00 30.00 112.00 30.00
C 141.33 30.00 170.67 30.00 200.00 30.00
C 200.96 30.00 202.05 29.87 203.00 30.00
C 202.84 29.94 203.00 29.00 203.00 29.00
C 187.62 27.61 171.45 29.00 156.00 29.00 C 140.55 29.00 124.38 27.61 109.00 29.00
C 109.00 29.00 109.23 29.66 109.00 30.00 Z"/>
</g>
<g fill="None" fill-opacity="0.0" stroke="#BFBFBF" stroke-opacity="0.21" stroke-width="0.3"><path d="
M 203.00 30.00 
C 221.81 32.49 214.85 59.25 216.00 72.00
C 216.00 72.04 217.00 72.00 217.00 72.00
C 217.69 65.25 216.08 56.56 217.00 50.00 C 217.92 43.44 213.77 38.20 216.00 35.00
C 210.23 32.65 209.45 29.95 203.00 29.00
C 203.00 29.00 202.84 29.94 203.00 30.00 Z"/>
</g>
<g fill="None" fill-opacity="0.0" stroke="#BEBEBE" stroke-opacity="0.29" stroke-width="0.3"><path d="
M 93.00 104.00 
C 93.00 103.96 94.00 104.00 94.00 104.00
C 94.50 104.00 95.00 104.00 95.00 104.00
C 95.50 104.00 96.00 104.00 96.00 104.00
C 96.00 84.63 92.50 60.17 97.00 42.00
C 98.34 36.58 102.01 32.45 107.00 30.00
C 102.45 31.88 96.65 33.44 95.22 38.78 C 93.78 44.11 95.92 53.69 95.00 60.00 C 94.08 66.31 96.24 77.13 95.00 83.00 C 93.76 88.87 98.30 101.15 93.00 104.00 Z"/>
</g>
<g fill="None" fill-opacity="0.0" stroke="#232323" stroke-opacity="0.98" stroke-width="0.3"><path d="
M 97.00 42.00 
C 94.05 65.82 97.72 90.95 97.00 115.00 C 96.28 139.05 95.96 163.91 97.00 188.00 C 98.04 212.09 93.59 238.14 97.00 262.00
C 97.77 264.85 98.79 267.72 101.00 270.00
C 102.79 271.37 103.74 271.98 106.00 273.00
C 107.30 273.21 108.69 272.84 110.00 273.00
C 107.77 269.32 118.54 271.36 124.00 271.00 C 129.46 270.64 137.88 271.16 144.00 271.00 C 150.12 270.84 157.59 271.08 164.00 271.00 C 170.41 270.92 177.47 271.04 184.00 271.00 C 190.53 270.96 197.43 271.03 204.00 271.00
C 203.02 271.95 201.19 273.03 204.00 273.00
C 225.71 264.82 214.26 224.21 216.00 205.00
C 215.50 205.00 214.50 205.00 214.00 205.00
C 215.42 220.66 216.62 243.40 213.00 258.00
C 211.53 263.93 208.93 266.53 203.00 268.00
C 195.93 269.75 186.81 269.06 179.00 269.00 C 171.19 268.94 161.61 269.45 154.00 269.00 C 146.39 268.55 135.92 270.14 129.00 269.00 C 122.08 267.86 110.21 272.51 106.00 267.00
C 105.57 267.17 105.00 267.00 105.00 267.00
C 101.67 265.37 100.00 262.18 99.00 259.00
C 96.81 252.09 98.33 243.77 98.00 236.00 C 97.67 228.23 98.14 219.89 98.00 212.00 C 97.86 204.11 98.04 195.93 98.00 188.00 C 97.96 180.07 97.97 171.93 98.00 164.00 C 98.03 156.07 97.88 147.87 98.00 140.00 C 98.12 132.13 97.70 123.73 98.00 116.00 C 98.30 108.27 97.34 99.40 98.00 92.00 C 98.66 84.60 96.52 74.68 98.00 68.00 C 99.48 61.32 94.40 48.42 99.00 44.00
C 99.44 39.26 104.64 35.64 109.00 35.00
C 114.74 34.48 126.02 33.32 130.00 37.00
C 131.04 37.96 131.49 41.29 133.00 42.00
C 140.03 45.33 152.25 40.47 160.00 42.00 C 167.75 43.53 178.19 43.37 182.00 37.00
C 182.19 36.68 182.75 36.25 183.00 36.00
C 183.25 35.75 183.70 35.22 184.00 35.00
C 187.82 32.19 198.99 33.86 203.00 35.00
C 206.27 35.43 210.49 37.85 212.00 41.00
C 212.83 42.74 213.07 43.98 213.00 46.00
C 216.53 64.95 215.79 91.15 214.00 111.00
C 214.50 111.00 215.58 110.82 216.00 111.00
C 214.85 106.39 220.45 97.60 218.00 92.00 C 215.55 86.40 221.85 75.14 216.00 72.00
C 214.85 59.25 221.81 32.49 203.00 30.00
C 202.05 29.87 200.96 30.00 200.00 30.00
C 199.75 30.27 200.00 31.00 200.00 31.00
C 202.50 31.93 192.43 32.22 188.00 32.00 C 183.57 31.79 176.09 32.09 171.00 32.00 C 165.91 31.91 159.37 32.04 154.00 32.00 C 148.63 31.96 142.44 32.00 137.00 32.00
C 134.33 32.00 131.67 32.00 129.00 32.00
C 122.33 32.00 115.67 32.00 109.00 32.00
C 109.26 30.61 111.05 31.22 112.00 31.00
C 112.08 30.99 112.00 30.00 112.00 30.00
C 111.00 30.00 110.00 30.00 109.00 30.00
C 108.50 30.00 107.40 29.80 107.00 30.00
C 102.01 32.45 98.34 36.58 97.00 42.00
M 170.00 38.00 
C 161.74 39.65 150.19 39.68 142.00 38.00
C 150.26 36.35 161.81 36.32 170.00 38.00 Z"/>
</g>
<g fill="None" fill-opacity="0.0" stroke="#4C4C4C" stroke-opacity="0.92" stroke-width="0.3"><path d="
M 112.00 31.00 
C 117.56 31.50 123.41 31.00 129.00 31.00
C 131.67 31.00 134.33 31.00 137.00 31.00
C 157.71 31.00 179.38 32.86 200.00 31.00
C 200.00 31.00 199.75 30.27 200.00 30.00
C 170.67 30.00 141.33 30.00 112.00 30.00
C 112.00 30.00 112.08 30.99 112.00 31.00 Z"/>
</g>
<g fill="None" fill-opacity="0.0" stroke="#7E7E7E" stroke-opacity="0.71" stroke-width="0.3"><path d="
M 129.00 32.00 
C 128.96 32.00 129.00 31.00 129.00 31.00
C 123.41 31.00 117.56 31.50 112.00 31.00
C 111.05 31.22 109.26 30.61 109.00 32.00
C 115.67 32.00 122.33 32.00 129.00 32.00 Z"/>
</g>
<g fill="None" fill-opacity="0.0" stroke="#818181" stroke-opacity="0.87" stroke-width="0.3"><path d="
M 129.00 32.00 
C 131.67 32.00 134.33 32.00 137.00 32.00
C 136.96 32.00 137.00 31.00 137.00 31.00
C 134.33 31.00 131.67 31.00 129.00 31.00
C 129.00 31.00 128.96 32.00 129.00 32.00 Z"/>
</g>
<g fill="None" fill-opacity="0.0" stroke="#808080" stroke-opacity="0.65" stroke-width="0.3"><path d="
M 137.00 32.00 
C 142.44 32.00 148.63 31.96 154.00 32.00 C 159.37 32.04 165.91 31.91 171.00 32.00 C 176.09 32.09 183.57 31.79 188.00 32.00 C 192.43 32.22 202.50 31.93 200.00 31.00
C 179.38 32.86 157.71 31.00 137.00 31.00
C 137.00 31.00 136.96 32.00 137.00 32.00 Z"/>
</g>
<g fill="None" fill-opacity="0.0" stroke="#3A3A3A" stroke-opacity="0.85" stroke-width="0.3"><path d="
M 184.00 35.00 
C 188.77 34.31 194.17 35.00 199.00 35.00
C 199.50 35.00 200.00 35.00 200.00 35.00
C 200.96 35.00 202.05 34.87 203.00 35.00
C 198.99 33.86 187.82 32.19 184.00 35.00 Z"/>
</g>
<g fill="None" fill-opacity="0.0" stroke="#CACACA" stroke-opacity="0.23" stroke-width="0.3"><path d="
M 99.00 44.00 
C 98.95 44.50 99.00 45.00 99.00 45.00
C 100.47 40.95 104.16 36.98 109.00 36.00
C 109.10 35.98 109.00 35.00 109.00 35.00
C 104.64 35.64 99.44 39.26 99.00 44.00 Z"/>
</g>
<g fill="None" fill-opacity="0.0" stroke="#ECECEC" stroke-opacity="0.02" stroke-width="0.3"><path d="
M 109.00 36.00 
C 116.32 36.66 125.85 35.54 130.00 37.00
C 126.02 33.32 114.74 34.48 109.00 35.00
C 109.00 35.00 109.10 35.98 109.00 36.00 Z"/>
</g>
<g fill="None" fill-opacity="0.0" stroke="#FDFDFD" stroke-opacity="0.02" stroke-width="0.3"><path d="
M 183.00 36.00 
C 187.74 35.32 195.28 37.75 199.00 35.00
C 194.17 35.00 188.77 34.31 184.00 35.00
C 183.70 35.22 183.25 35.75 183.00 36.00 Z"/>
</g>
<g fill="None" fill-opacity="0.0" stroke="#000000" stroke-opacity="0.00" stroke-width="0.3"><path d="
M 183.00 36.00 
C 182.75 36.25 182.19 36.68 182.00 37.00
C 181.58 38.79 181.16 40.43 182.00 42.00
C 166.30 43.54 148.28 43.76 133.00 42.00
C 130.88 40.91 129.07 40.34 130.00 37.00
C 125.85 35.54 116.32 36.66 109.00 36.00
C 104.16 36.98 100.47 40.95 99.00 45.00
C 99.00 59.12 98.88 72.84 99.00 87.00 C 99.12 101.16 98.70 115.80 99.00 130.00 C 99.30 144.20 98.32 158.86 99.00 173.00 C 99.68 187.14 97.49 202.06 99.00 216.00 C 100.51 229.94 95.66 245.51 99.00 259.00
C 99.65 261.63 103.36 264.65 105.00 267.00
C 105.00 267.00 105.57 267.17 106.00 267.00
C 110.96 265.04 120.54 269.56 128.00 268.00 C 135.46 266.44 145.11 268.93 153.00 268.00 C 160.89 267.07 169.98 268.93 178.00 268.00 C 186.02 267.07 195.07 269.54 203.00 268.00
C 201.54 268.28 204.01 264.30 206.00 267.00
C 203.83 264.82 208.35 262.37 210.00 264.00
C 211.56 262.23 211.32 259.37 213.00 258.00
C 214.71 249.75 212.36 240.45 213.00 232.00 C 213.64 223.55 213.00 214.50 213.00 206.00
C 195.58 207.57 173.54 207.69 157.00 205.00
C 139.53 206.17 120.39 185.68 120.00 169.00
C 119.99 168.50 120.00 168.00 120.00 168.00
C 115.76 162.28 119.70 147.36 120.98 140.98 C 122.25 134.59 127.32 126.80 132.25 122.25 C 137.17 117.69 145.15 112.26 152.00 112.00
C 152.50 111.98 153.00 112.00 153.00 112.00
C 161.37 108.35 172.28 109.98 182.00 110.00 C 191.72 110.02 203.21 109.11 213.00 110.00
C 212.99 89.33 213.00 68.67 213.00 48.00
C 212.76 46.23 211.08 41.10 209.00 39.00
C 206.22 37.02 201.77 37.23 200.00 35.00
C 200.00 35.00 199.50 35.00 199.00 35.00
C 195.28 37.75 187.74 35.32 183.00 36.00
M 205.00 61.00 
C 205.58 62.99 205.47 64.23 205.00 66.00
C 202.45 75.57 186.82 72.15 178.00 72.00 C 169.18 71.85 153.94 73.50 145.00 72.00 C 136.06 70.50 118.97 76.15 112.00 71.00
C 111.50 71.00 111.00 71.00 111.00 71.00
C 106.65 70.17 104.48 64.22 107.00 61.00
C 107.03 60.50 107.00 60.00 107.00 60.00
C 107.50 52.06 122.45 55.44 129.00 55.00 C 135.55 54.56 148.46 55.05 156.00 55.00 C 163.54 54.95 175.44 54.69 183.00 55.00 C 190.56 55.31 202.39 52.07 205.00 61.00
M 140.00 98.00 
C 140.93 103.28 137.46 106.13 132.00 104.00
C 122.07 100.13 132.45 86.99 140.00 94.00
C 140.00 95.33 140.00 96.67 140.00 98.00
M 154.00 96.00 
C 154.20 96.40 154.00 97.00 154.00 97.00
C 158.82 103.27 145.16 108.69 142.70 101.30 C 140.24 93.91 150.27 88.38 154.00 96.00
M 174.00 93.00 
C 182.15 90.50 185.00 95.84 184.00 103.00
C 180.37 104.76 172.99 106.89 172.00 101.00
C 170.93 105.52 162.62 104.81 158.00 105.00
C 156.58 100.73 155.92 93.84 161.23 92.23 C 166.54 90.62 169.52 98.04 174.00 93.00 Z"/>
</g>
<g fill="None" fill-opacity="0.0" stroke="#C0C0C0" stroke-opacity="0.27" stroke-width="0.3"><path d="
M 209.00 39.00 
C 209.72 39.51 211.55 40.37 212.00 41.00
C 210.49 37.85 206.27 35.43 203.00 35.00
C 202.05 34.87 200.96 35.00 200.00 35.00
C 201.77 37.23 206.22 37.02 209.00 39.00 Z"/>
</g>
<g fill="None" fill-opacity="0.0" stroke="#ADADAD" stroke-opacity="0.34" stroke-width="0.3"><path d="
M 133.00 42.00 
C 131.49 41.29 131.04 37.96 130.00 37.00
C 129.07 40.34 130.88 40.91 133.00 42.00 Z"/>
</g>
<g fill="None" fill-opacity="0.0" stroke="#A2A2A2" stroke-opacity="0.41" stroke-width="0.3"><path d="
M 142.00 38.00 
C 151.33 38.00 160.67 38.00 170.00 38.00
C 161.81 36.32 150.26 36.35 142.00 38.00 Z"/>
</g>
<g fill="None" fill-opacity="0.0" stroke="#D9D9D9" stroke-opacity="0.16" stroke-width="0.3"><path d="
M 133.00 42.00 
C 148.28 43.76 166.30 43.54 182.00 42.00
C 181.16 40.43 181.58 38.79 182.00 37.00
C 178.19 43.37 167.75 43.53 160.00 42.00 C 152.25 40.47 140.03 45.33 133.00 42.00 Z"/>
</g>
<g fill="None" fill-opacity="0.0" stroke="#828282" stroke-opacity="0.53" stroke-width="0.3"><path d="
M 170.00 38.00 
C 160.67 38.00 151.33 38.00 142.00 38.00
C 150.19 39.68 161.74 39.65 170.00 38.00 Z"/>
</g>
<g fill="None" fill-opacity="0.0" stroke="#E4E4E4" stroke-opacity="0.12" stroke-width="0.3"><path d="
M 213.00 48.00 
C 213.00 47.50 212.98 46.50 213.00 46.00
C 213.07 43.98 212.83 42.74 212.00 41.00
C 211.55 40.37 209.72 39.51 209.00 39.00
C 211.08 41.10 212.76 46.23 213.00 48.00 Z"/>
</g>
<g fill="None" fill-opacity="0.0" stroke="#464646" stroke-opacity="0.93" stroke-width="0.3"><path d="
M 96.00 104.00 
C 96.00 109.33 96.00 114.67 96.00 120.00
C 96.00 143.12 94.33 168.07 96.00 191.00 C 97.67 213.93 91.17 240.49 97.00 262.00
C 93.59 238.14 98.04 212.09 97.00 188.00 C 95.96 163.91 96.28 139.05 97.00 115.00 C 97.72 90.95 94.05 65.82 97.00 42.00
C 92.50 60.17 96.00 84.63 96.00 104.00 Z"/>
</g>
<g fill="None" fill-opacity="0.0" stroke="#A7A7A7" stroke-opacity="0.42" stroke-width="0.3"><path d="
M 99.00 259.00 
C 95.66 245.51 100.51 229.94 99.00 216.00 C 97.49 202.06 99.68 187.14 99.00 173.00 C 98.32 158.86 99.30 144.20 99.00 130.00 C 98.70 115.80 99.12 101.16 99.00 87.00 C 98.88 72.84 99.00 59.12 99.00 45.00
C 99.00 45.00 98.95 44.50 99.00 44.00
C 94.40 48.42 99.48 61.32 98.00 68.00 C 96.52 74.68 98.66 84.60 98.00 92.00 C 97.34 99.40 98.30 108.27 98.00 116.00 C 97.70 123.73 98.12 132.13 98.00 140.00 C 97.88 147.87 98.03 156.07 98.00 164.00 C 97.97 171.93 97.96 180.07 98.00 188.00 C 98.04 195.93 97.86 204.11 98.00 212.00 C 98.14 219.89 97.67 228.23 98.00 236.00 C 98.33 243.77 96.81 252.09 99.00 259.00 Z"/>
</g>
<g fill="None" fill-opacity="0.0" stroke="#818282" stroke-opacity="0.57" stroke-width="0.3"><path d="
M 213.00 48.00 
C 213.00 68.67 212.99 89.33 213.00 110.00
C 213.00 110.50 213.00 111.00 213.00 111.00
C 213.32 110.76 214.00 111.00 214.00 111.00
C 215.79 91.15 216.53 64.95 213.00 46.00
C 212.98 46.50 213.00 47.50 213.00 48.00 Z"/>
</g>
<g fill="None" fill-opacity="0.0" stroke="#E8FDFE" stroke-opacity="0.07" stroke-width="0.3"><path d="
M 107.00 60.00 
C 113.98 52.56 128.38 56.30 138.00 56.00 C 147.62 55.70 164.89 55.21 174.00 56.00 C 183.11 56.79 201.24 51.44 205.00 61.00
C 202.39 52.07 190.56 55.31 183.00 55.00 C 175.44 54.69 163.54 54.95 156.00 55.00 C 148.46 55.05 135.55 54.56 129.00 55.00 C 122.45 55.44 107.50 52.06 107.00 60.00 Z"/>
</g>
<g fill="None" fill-opacity="0.0" stroke="#73AEC1" stroke-opacity="0.83" stroke-width="0.3"><path d="
M 107.00 60.00 
C 107.00 60.00 107.03 60.50 107.00 61.00
C 106.73 64.97 108.13 68.31 111.00 71.00
C 111.00 71.00 111.50 71.00 112.00 71.00
C 122.01 71.00 134.21 71.40 144.00 71.00 C 153.79 70.60 168.08 72.02 177.00 71.00 C 185.92 69.98 201.25 75.38 205.00 66.00
C 205.47 64.23 205.58 62.99 205.00 61.00
C 201.24 51.44 183.11 56.79 174.00 56.00 C 164.89 55.21 147.62 55.70 138.00 56.00 C 128.38 56.30 113.98 52.56 107.00 60.00
M 190.00 58.00 
C 197.36 61.80 188.97 71.81 182.00 69.00 C 175.03 66.19 165.37 70.66 158.00 69.00 C 150.63 67.34 141.34 70.63 134.00 69.00 C 126.66 67.37 117.37 72.05 110.78 68.22 C 104.19 64.39 110.98 55.84 118.00 58.00 C 125.02 60.16 134.70 56.52 142.00 58.00 C 149.30 59.48 158.89 56.22 166.00 58.00 C 173.11 59.78 183.67 54.73 190.00 58.00
M 196.00 60.00 
C 196.45 59.85 197.52 59.90 198.00 60.00
C 201.53 60.77 200.15 66.10 196.92 65.92 C 193.70 65.75 193.17 60.92 196.00 60.00 Z"/>
</g>
<g fill="None" fill-opacity="0.0" stroke="#E0FDFD" stroke-opacity="0.09" stroke-width="0.3"><path d="
M 190.00 58.00 
C 183.67 54.73 173.11 59.78 166.00 58.00 C 158.89 56.22 149.30 59.48 142.00 58.00 C 134.70 56.52 125.02 60.16 118.00 58.00 C 110.98 55.84 104.19 64.39 110.78 68.22 C 117.37 72.05 126.66 67.37 134.00 69.00 C 141.34 70.63 150.63 67.34 158.00 69.00 C 165.37 70.66 175.03 66.19 182.00 69.00 C 188.97 71.81 197.36 61.80 190.00 58.00
M 190.00 59.00 
C 196.57 63.65 186.42 70.03 181.00 68.00 C 175.58 65.97 166.97 68.69 161.00 68.00 C 155.03 67.31 147.06 67.81 141.00 68.00 C 134.94 68.19 126.73 66.81 121.00 68.00 C 115.27 69.19 106.21 66.12 110.77 60.77 C 115.33 55.42 123.06 59.98 129.00 59.00 C 134.94 58.02 143.02 58.88 149.00 59.00 C 154.98 59.12 163.44 57.71 169.00 59.00 C 174.56 60.29 185.60 55.89 190.00 59.00 Z"/>
</g>
<g fill="None" fill-opacity="0.0" stroke="#000000" stroke-opacity="0.00" stroke-width="0.3"><path d="
M 190.00 59.00 
C 185.60 55.89 174.56 60.29 169.00 59.00 C 163.44 57.71 154.98 59.12 149.00 59.00 C 143.02 58.88 134.94 58.02 129.00 59.00 C 123.06 59.98 115.33 55.42 110.77 60.77 C 106.21 66.12 115.27 69.19 121.00 68.00 C 126.73 66.81 134.94 68.19 141.00 68.00 C 147.06 67.81 155.03 67.31 161.00 68.00 C 166.97 68.69 175.58 65.97 181.00 68.00 C 186.42 70.03 196.57 63.65 190.00 59.00 Z"/>
</g>
<g fill="None" fill-opacity="0.0" stroke="#C9F5FD" stroke-opacity="0.16" stroke-width="0.3"><path d="
M 198.00 60.00 
C 200.67 62.21 197.81 65.21 195.00 64.00
C 194.63 62.46 196.43 61.60 196.00 60.00
C 193.17 60.92 193.70 65.75 196.92 65.92 C 200.15 66.10 201.53 60.77 198.00 60.00 Z"/>
</g>
<g fill="None" fill-opacity="0.0" stroke="#000000" stroke-opacity="0.00" stroke-width="0.3"><path d="
M 198.00 60.00 
C 197.52 59.90 196.45 59.85 196.00 60.00
C 196.43 61.60 194.63 62.46 195.00 64.00
C 197.81 65.21 200.67 62.21 198.00 60.00 Z"/>
</g>
<g fill="None" fill-opacity="0.0" stroke="#D2F4F4" stroke-opacity="0.15" stroke-width="0.3"><path d="
M 111.00 71.00 
C 108.13 68.31 106.73 64.97 107.00 61.00
C 104.48 64.22 106.65 70.17 111.00 71.00 Z"/>
</g>
<g fill="None" fill-opacity="0.0" stroke="#DFFDFE" stroke-opacity="0.07" stroke-width="0.3"><path d="
M 112.00 71.00 
C 118.97 76.15 136.06 70.50 145.00 72.00 C 153.94 73.50 169.18 71.85 178.00 72.00 C 186.82 72.15 202.45 75.57 205.00 66.00
C 201.25 75.38 185.92 69.98 177.00 71.00 C 168.08 72.02 153.79 70.60 144.00 71.00 C 134.21 71.40 122.01 71.00 112.00 71.00 Z"/>
</g>
<g fill="None" fill-opacity="0.0" stroke="#A5A7A7" stroke-opacity="0.39" stroke-width="0.3"><path d="
M 216.00 111.00 
C 216.24 111.25 217.00 111.00 217.00 111.00
C 217.25 110.75 217.00 110.00 217.00 110.00
C 217.81 105.89 220.53 95.79 219.00 91.00 C 217.47 86.21 221.99 72.73 217.00 72.00
C 217.00 72.00 216.00 72.04 216.00 72.00
C 221.85 75.14 215.55 86.40 218.00 92.00 C 220.45 97.60 214.85 106.39 216.00 111.00 Z"/>
</g>
<g fill="None" fill-opacity="0.0" stroke="#D1F4F9" stroke-opacity="0.24" stroke-width="0.3"><path d="
M 132.00 104.00 
C 126.67 102.18 128.92 91.94 135.00 94.00 C 141.09 96.06 135.88 96.75 139.00 100.00
C 139.34 99.23 139.83 99.20 140.00 98.00
C 140.00 96.67 140.00 95.33 140.00 94.00
C 132.45 86.99 122.07 100.13 132.00 104.00 Z"/>
</g>
<g fill="None" fill-opacity="0.0" stroke="#F5D1F1" stroke-opacity="0.18" stroke-width="0.3"><path d="
M 154.00 97.00 
C 154.50 102.60 145.76 108.06 143.25 100.75 C 140.74 93.44 149.68 92.23 154.00 96.00
C 150.27 88.38 140.24 93.91 142.70 101.30 C 145.16 108.69 158.82 103.27 154.00 97.00 Z"/>
</g>
<g fill="None" fill-opacity="0.0" stroke="#F6E9E3" stroke-opacity="0.12" stroke-width="0.3"><path d="
M 172.00 101.00 
C 172.37 99.43 171.59 97.56 172.00 96.00
C 172.15 95.42 173.60 93.28 174.00 93.00
C 169.52 98.04 166.54 90.62 161.23 92.23 C 155.92 93.84 156.58 100.73 158.00 105.00
C 162.62 104.81 170.93 105.52 172.00 101.00
M 165.00 93.00 
C 170.95 94.60 169.10 105.48 162.00 104.00 C 154.89 102.52 158.12 91.15 165.00 93.00 Z"/>
</g>
<g fill="None" fill-opacity="0.0" stroke="#CEE8EA" stroke-opacity="0.16" stroke-width="0.3"><path d="
M 174.00 93.00 
C 173.60 93.28 172.15 95.42 172.00 96.00
C 173.66 91.35 182.45 92.73 182.97 98.03 C 183.50 103.32 173.96 106.91 172.00 101.00
C 172.99 106.89 180.37 104.76 184.00 103.00
C 185.00 95.84 182.15 90.50 174.00 93.00 Z"/>
</g>
<g fill="None" fill-opacity="0.0" stroke="#C958B0" stroke-opacity="0.95" stroke-width="0.3"><path d="
M 154.00 97.00 
C 154.00 97.00 154.20 96.40 154.00 96.00
C 149.68 92.23 140.74 93.44 143.25 100.75 C 145.76 108.06 154.50 102.60 154.00 97.00 Z"/>
</g>
<g fill="None" fill-opacity="0.0" stroke="#E88578" stroke-opacity="0.94" stroke-width="0.3"><path d="
M 165.00 93.00 
C 158.12 91.15 154.89 102.52 162.00 104.00 C 169.10 105.48 170.95 94.60 165.00 93.00 Z"/>
</g>
<g fill="None" fill-opacity="0.0" stroke="#277379" stroke-opacity="0.96" stroke-width="0.3"><path d="
M 172.00 96.00 
C 171.59 97.56 172.37 99.43 172.00 101.00
C 173.96 106.91 183.50 103.32 182.97 98.03 C 182.45 92.73 173.66 91.35 172.00 96.00 Z"/>
</g>
<g fill="None" fill-opacity="0.0" stroke="#77CFE5" stroke-opacity="0.94" stroke-width="0.3"><path d="
M 132.00 104.00 
C 135.93 105.34 137.77 102.81 139.00 100.00
C 135.88 96.75 141.09 96.06 135.00 94.00 C 128.92 91.94 126.67 102.18 132.00 104.00 Z"/>
</g>
<g fill="None" fill-opacity="0.0" stroke="#EDFDFF" stroke-opacity="0.06" stroke-width="0.3"><path d="
M 139.00 100.00 
C 137.77 102.81 135.93 105.34 132.00 104.00
C 137.46 106.13 140.93 103.28 140.00 98.00
C 139.83 99.20 139.34 99.23 139.00 100.00 Z"/>
</g>
<g fill="None" fill-opacity="0.0" stroke="#757575" stroke-opacity="0.61" stroke-width="0.3"><path d="
M 93.00 120.00 
C 93.00 120.04 94.00 120.00 94.00 120.00
C 93.52 114.71 94.48 109.29 94.00 104.00
C 94.00 104.00 93.00 103.96 93.00 104.00
C 92.54 109.04 92.54 114.96 93.00 120.00 Z"/>
</g>
<g fill="None" fill-opacity="0.0" stroke="#010101" stroke-opacity="1.00" stroke-width="0.3"><path d="
M 94.00 120.00 
C 94.50 120.00 95.00 120.00 95.00 120.00
C 94.52 114.71 95.48 109.29 95.00 104.00
C 95.00 104.00 94.50 104.00 94.00 104.00
C 94.48 109.29 93.52 114.71 94.00 120.00 Z"/>
</g>
<g fill="None" fill-opacity="0.0" stroke="#818181" stroke-opacity="0.65" stroke-width="0.3"><path d="
M 95.00 120.00 
C 95.50 120.00 96.00 120.00 96.00 120.00
C 96.00 114.67 96.00 109.33 96.00 104.00
C 96.00 104.00 95.50 104.00 95.00 104.00
C 95.48 109.29 94.52 114.71 95.00 120.00 Z"/>
</g>
<g fill="None" fill-opacity="0.0" stroke="#DDFDFE" stroke-opacity="0.05" stroke-width="0.3"><path d="
M 153.00 112.00 
C 154.67 112.00 156.33 112.00 158.00 112.00
C 175.51 110.14 194.87 112.64 213.00 111.00
C 213.00 111.00 213.00 110.50 213.00 110.00
C 203.21 109.11 191.72 110.02 182.00 110.00 C 172.28 109.98 161.37 108.35 153.00 112.00 Z"/>
</g>
<g fill="None" fill-opacity="0.0" stroke="#E4FFFF" stroke-opacity="0.04" stroke-width="0.3"><path d="
M 217.00 111.00 
C 300.40 110.98 383.58 109.75 467.00 111.00 C 550.42 112.25 634.61 107.67 718.00 111.00
C 677.84 105.18 634.34 111.70 593.00 110.00 C 551.66 108.30 509.54 110.12 468.00 110.00 C 426.46 109.88 383.53 108.66 342.00 110.00 C 300.47 111.34 258.32 106.26 217.00 110.00
C 217.00 110.00 217.25 110.75 217.00 111.00 Z"/>
</g>
<g fill="None" fill-opacity="0.0" stroke="#72B7CF" stroke-opacity="0.70" stroke-width="0.3"><path d="
M 158.00 112.00 
C 166.30 112.00 178.04 113.12 186.00 112.00 C 193.96 110.88 206.97 115.46 213.00 111.00
C 194.87 112.64 175.51 110.14 158.00 112.00 Z"/>
</g>
<g fill="None" fill-opacity="0.0" stroke="#2FA6D9" stroke-opacity="0.98" stroke-width="0.3"><path d="
M 158.00 112.00 
C 156.33 112.00 154.67 112.00 153.00 112.00
C 153.00 112.00 152.50 111.98 152.00 112.00
C 141.66 117.41 134.00 120.27 127.08 131.08 C 120.15 141.88 120.00 154.75 120.00 168.00
C 120.00 168.00 119.99 168.50 120.00 169.00
C 122.07 172.79 122.89 177.82 125.00 182.00
C 127.90 186.54 132.88 192.16 137.00 196.00
C 143.43 201.13 151.82 201.14 158.00 205.00
C 176.33 205.00 194.67 205.00 213.00 205.00
C 213.50 205.00 214.00 205.00 214.00 205.00
C 214.50 205.00 215.50 205.00 216.00 205.00
C 216.50 205.00 217.00 205.00 217.00 205.00
C 251.97 205.00 287.04 205.07 322.00 205.00 C 356.96 204.93 392.07 205.19 427.00 205.00 C 461.93 204.81 498.26 205.43 533.00 205.00 C 567.74 204.57 603.74 205.97 638.00 205.00 C 672.26 204.03 706.05 210.13 737.00 198.00
C 737.00 198.00 737.56 198.16 738.00 198.00
C 745.28 187.59 752.94 183.38 754.99 169.99 C 757.04 156.60 755.42 144.33 749.75 132.25 C 744.07 120.18 732.65 119.03 724.00 112.00
C 724.00 112.00 723.50 112.00 723.00 112.00
C 706.18 112.00 689.87 112.00 673.00 112.00 C 656.13 112.00 638.93 112.01 622.00 112.00 C 605.07 111.99 587.95 112.02 571.00 112.00 C 554.05 111.98 536.93 112.04 520.00 112.00 C 503.07 111.96 485.87 112.09 469.00 112.00 C 452.13 111.91 435.82 112.19 419.00 112.00 C 402.18 111.81 384.76 112.42 368.00 112.00 C 351.24 111.58 333.55 112.93 317.00 112.00 C 300.45 111.07 282.03 114.06 266.00 112.00 C 249.97 109.94 230.20 117.03 216.00 111.00
C 215.58 110.82 214.50 111.00 214.00 111.00
C 214.00 111.00 213.32 110.76 213.00 111.00
C 206.97 115.46 193.96 110.88 186.00 112.00 C 178.04 113.12 166.30 112.00 158.00 112.00
M 719.00 121.00 
C 738.23 121.79 747.73 141.89 748.00 158.00 C 748.27 174.11 737.27 197.08 718.00 195.00
C 717.51 194.95 717.00 195.00 717.00 195.00
C 709.70 200.40 695.60 194.29 686.00 196.00 C 676.40 197.71 663.36 195.23 653.00 196.00 C 642.64 196.77 630.70 195.65 620.00 196.00 C 609.30 196.35 597.83 195.84 587.00 196.00 C 576.17 196.16 564.85 195.93 554.00 196.00 C 543.15 196.07 532.88 195.97 522.00 196.00 C 511.12 196.03 499.94 195.99 489.00 196.00 C 478.06 196.01 466.96 196.00 456.00 196.00 C 445.04 196.00 433.95 196.00 423.00 196.00 C 412.05 196.00 400.90 196.02 390.00 196.00 C 379.10 195.98 368.89 196.04 358.00 196.00 C 347.11 195.96 335.91 196.08 325.00 196.00 C 314.09 195.92 302.87 196.18 292.00 196.00 C 281.13 195.82 269.75 196.41 259.00 196.00 C 248.25 195.59 237.80 197.08 227.33 195.67
C 221.50 194.35 215.58 191.98 211.00 189.00
C 207.36 186.63 203.78 182.81 202.00 179.00
C 191.76 157.11 199.87 124.22 227.00 121.00
C 252.76 116.03 281.09 121.52 308.00 120.00 C 334.91 118.48 362.81 120.54 390.00 120.00 C 417.19 119.46 445.75 119.94 473.00 120.00 C 500.25 120.06 527.86 119.27 555.00 120.00 C 582.14 120.73 610.11 118.12 637.00 120.00 C 663.89 121.88 693.40 115.33 719.00 121.00
M 172.00 131.00 
C 180.81 131.33 187.71 139.14 188.99 148.01 C 190.27 156.88 185.97 166.07 177.30 170.30 C 168.64 174.54 160.00 170.15 152.00 169.00
C 151.98 170.83 154.46 173.73 152.00 175.00
C 151.12 177.08 143.23 186.00 141.00 186.00
C 138.24 186.00 136.73 180.29 134.00 180.00
C 137.36 175.19 142.69 171.77 146.00 167.00
C 157.12 169.07 145.08 155.33 147.93 147.93 C 150.77 140.52 154.95 130.69 165.00 131.00
C 167.72 130.44 169.32 130.41 172.00 131.00 Z"/>
</g>
<g fill="None" fill-opacity="0.0" stroke="#73B6D0" stroke-opacity="0.72" stroke-width="0.3"><path d="
M 723.00 112.00 
C 721.55 110.60 720.09 111.08 718.00 111.00
C 634.61 107.67 550.42 112.25 467.00 111.00 C 383.58 109.75 300.40 110.98 217.00 111.00
C 217.00 111.00 216.24 111.25 216.00 111.00
C 230.20 117.03 249.97 109.94 266.00 112.00 C 282.03 114.06 300.45 111.07 317.00 112.00 C 333.55 112.93 351.24 111.58 368.00 112.00 C 384.76 112.42 402.18 111.81 419.00 112.00 C 435.82 112.19 452.13 111.91 469.00 112.00 C 485.87 112.09 503.07 111.96 520.00 112.00 C 536.93 112.04 554.05 111.98 571.00 112.00 C 587.95 112.02 605.07 111.99 622.00 112.00 C 638.93 112.01 656.13 112.00 673.00 112.00 C 689.87 112.00 706.18 112.00 723.00 112.00 Z"/>
</g>
<g fill="None" fill-opacity="0.0" stroke="#CCF6FC" stroke-opacity="0.15" stroke-width="0.3"><path d="
M 120.00 168.00 
C 120.00 154.75 120.15 141.88 127.08 131.08 C 134.00 120.27 141.66 117.41 152.00 112.00
C 145.15 112.26 137.17 117.69 132.25 122.25 C 127.32 126.80 122.25 134.59 120.98 140.98 C 119.70 147.36 115.76 162.28 120.00 168.00 Z"/>
</g>
<g fill="None" fill-opacity="0.0" stroke="#C1F0F9" stroke-opacity="0.21" stroke-width="0.3"><path d="
M 738.00 198.00 
C 739.05 197.61 740.09 196.69 741.00 196.00
C 743.15 194.03 746.14 191.13 748.00 189.00
C 756.98 176.92 760.24 153.51 754.92 140.08 C 749.60 126.64 738.86 112.56 724.00 112.00
C 732.65 119.03 744.07 120.18 749.75 132.25 C 755.42 144.33 757.04 156.60 754.99 169.99 C 752.94 183.38 745.28 187.59 738.00 198.00 Z"/>
</g>
<g fill="None" fill-opacity="0.0" stroke="#C1C1C1" stroke-opacity="0.30" stroke-width="0.3"><path d="
M 101.00 270.00 
C 98.79 267.72 97.77 264.85 97.00 262.00
C 91.17 240.49 97.67 213.93 96.00 191.00 C 94.33 168.07 96.00 143.12 96.00 120.00
C 96.00 120.00 95.50 120.00 95.00 120.00
C 95.00 120.00 94.50 120.00 94.00 120.00
C 94.00 120.00 93.00 120.04 93.00 120.00
C 98.84 123.14 93.68 138.05 95.00 145.00 C 96.32 151.95 94.40 164.04 95.00 172.00 C 95.60 179.96 94.77 189.55 95.00 198.00 C 95.23 206.45 94.96 216.36 95.00 225.00 C 95.04 233.64 95.13 243.41 95.00 252.00 C 94.87 260.59 94.43 264.96 101.00 270.00 Z"/>
</g>
<g fill="None" fill-opacity="0.0" stroke="#92D1E0" stroke-opacity="0.53" stroke-width="0.3"><path d="
M 227.00 121.00 
C 227.49 120.94 228.50 121.00 229.00 121.00
C 391.66 121.00 554.34 120.98 717.00 121.00
C 717.50 121.00 718.50 120.98 719.00 121.00
C 693.40 115.33 663.89 121.88 637.00 120.00 C 610.11 118.12 582.14 120.73 555.00 120.00 C 527.86 119.27 500.25 120.06 473.00 120.00 C 445.75 119.94 417.19 119.46 390.00 120.00 C 362.81 120.54 334.91 118.48 308.00 120.00 C 281.09 121.52 252.76 116.03 227.00 121.00 Z"/>
</g>
<g fill="None" fill-opacity="0.0" stroke="#D0F4FB" stroke-opacity="0.16" stroke-width="0.3"><path d="
M 202.00 179.00 
C 203.65 181.79 208.30 186.93 211.00 189.00
C 215.58 191.98 221.50 194.35 227.00 195.00
C 227.49 195.06 228.50 195.00 229.00 195.00
C 188.88 189.27 190.04 127.33 229.00 121.00
C 228.50 121.00 227.49 120.94 227.00 121.00
C 199.87 124.22 191.76 157.11 202.00 179.00 Z"/>
</g>
<g fill="None" fill-opacity="0.0" stroke="#000000" stroke-opacity="0.00" stroke-width="0.3"><path d="
M 229.00 195.00 
C 391.66 195.00 554.34 194.90 717.00 195.00
C 717.00 195.00 717.51 194.95 718.00 195.00
C 727.87 190.69 738.52 187.64 743.31 176.30 C 748.09 164.97 748.65 150.63 743.23 139.77 C 737.81 128.91 728.28 122.61 717.00 121.00
C 554.34 120.98 391.66 121.00 229.00 121.00
C 190.04 127.33 188.88 189.27 229.00 195.00 Z"/>
</g>
<g fill="None" fill-opacity="0.0" stroke="#CAF2FB" stroke-opacity="0.18" stroke-width="0.3"><path d="
M 718.00 195.00 
C 737.27 197.08 748.27 174.11 748.00 158.00 C 747.73 141.89 738.23 121.79 719.00 121.00
C 718.50 120.98 717.50 121.00 717.00 121.00
C 728.28 122.61 737.81 128.91 743.23 139.77 C 748.65 150.63 748.09 164.97 743.31 176.30 C 738.52 187.64 727.87 190.69 718.00 195.00 Z"/>
</g>
<g fill="None" fill-opacity="0.0" stroke="#96CDE5" stroke-opacity="0.53" stroke-width="0.3"><path d="
M 165.00 131.00 
C 165.50 131.04 166.00 131.00 166.00 131.00
C 167.67 131.00 169.33 131.00 171.00 131.00
C 171.50 131.00 172.00 131.00 172.00 131.00
C 169.32 130.41 167.72 130.44 165.00 131.00 Z"/>
</g>
<g fill="None" fill-opacity="0.0" stroke="#BFEDF5" stroke-opacity="0.20" stroke-width="0.3"><path d="
M 141.00 186.00 
C 142.80 181.30 149.89 179.07 152.00 175.00
C 154.46 173.73 151.98 170.83 152.00 169.00
C 160.00 170.15 168.64 174.54 177.30 170.30 C 185.97 166.07 190.27 156.88 188.99 148.01 C 187.71 139.14 180.81 131.33 172.00 131.00
C 172.00 131.00 171.50 131.00 171.00 131.00
C 176.51 135.05 186.11 136.39 187.77 145.23 C 189.43 154.07 187.20 163.03 179.77 167.77 C 172.34 172.51 163.84 172.82 156.75 167.25 C 149.67 161.67 147.53 155.11 149.00 146.00 C 150.47 136.88 160.39 135.12 166.00 131.00
C 166.00 131.00 165.50 131.04 165.00 131.00
C 154.95 130.69 150.77 140.52 147.93 147.93 C 145.08 155.33 157.12 169.07 146.00 167.00
C 142.69 171.77 137.36 175.19 134.00 180.00
C 136.73 180.29 138.24 186.00 141.00 186.00
M 150.00 173.00 
C 150.10 175.69 140.93 182.30 140.00 182.00
C 138.71 181.59 137.48 180.17 137.00 179.00
C 141.18 176.75 143.37 171.08 148.00 170.00
C 148.30 171.25 149.83 171.71 150.00 173.00 Z"/>
</g>
<g fill="None" fill-opacity="0.0" stroke="#000000" stroke-opacity="0.00" stroke-width="0.3"><path d="
M 171.00 131.00 
C 169.33 131.00 167.67 131.00 166.00 131.00
C 160.39 135.12 150.47 136.88 149.00 146.00 C 147.53 155.11 149.67 161.67 156.75 167.25 C 163.84 172.82 172.34 172.51 179.77 167.77 C 187.20 163.03 189.43 154.07 187.77 145.23 C 186.11 136.39 176.51 135.05 171.00 131.00 Z"/>
</g>
<g fill="None" fill-opacity="0.0" stroke="#C5F0FA" stroke-opacity="0.20" stroke-width="0.3"><path d="
M 157.00 205.00 
C 157.50 204.97 158.00 205.00 158.00 205.00
C 151.82 201.14 143.43 201.13 137.00 196.00
C 132.02 192.03 127.80 187.54 125.00 182.00
C 122.89 177.82 122.07 172.79 120.00 169.00
C 120.39 185.68 139.53 206.17 157.00 205.00 Z"/>
</g>
<g fill="None" fill-opacity="0.0" stroke="#33A0CB" stroke-opacity="0.98" stroke-width="0.3"><path d="
M 140.00 182.00 
C 143.80 182.00 146.24 173.54 150.00 173.00
C 149.83 171.71 148.30 171.25 148.00 170.00
C 143.37 171.08 141.18 176.75 137.00 179.00
C 137.48 180.17 138.71 181.59 140.00 182.00 Z"/>
</g>
<g fill="None" fill-opacity="0.0" stroke="#56A6C2" stroke-opacity="0.80" stroke-width="0.3"><path d="
M 140.00 182.00 
C 140.93 182.30 150.10 175.69 150.00 173.00
C 146.24 173.54 143.80 182.00 140.00 182.00 Z"/>
</g>
<g fill="None" fill-opacity="0.0" stroke="#54A8C3" stroke-opacity="0.85" stroke-width="0.3"><path d="
M 141.00 186.00 
C 143.23 186.00 151.12 177.08 152.00 175.00
C 149.89 179.07 142.80 181.30 141.00 186.00 Z"/>
</g>
<g fill="None" fill-opacity="0.0" stroke="#53A4C3" stroke-opacity="0.81" stroke-width="0.3"><path d="
M 211.00 189.00 
C 208.30 186.93 203.65 181.79 202.00 179.00
C 203.78 182.81 207.36 186.63 211.00 189.00 Z"/>
</g>
<g fill="None" fill-opacity="0.0" stroke="#5DA9C8" stroke-opacity="0.78" stroke-width="0.3"><path d="
M 137.00 196.00 
C 132.88 192.16 127.90 186.54 125.00 182.00
C 127.80 187.54 132.02 192.03 137.00 196.00 Z"/>
</g>
<g fill="None" fill-opacity="0.0" stroke="#EBFFFF" stroke-opacity="0.02" stroke-width="0.3"><path d="
M 741.00 196.00 
C 743.60 194.03 746.01 191.67 748.00 189.00
C 746.14 191.13 743.15 194.03 741.00 196.00 Z"/>
</g>
<g fill="None" fill-opacity="0.0" stroke="#AFE4F0" stroke-opacity="0.35" stroke-width="0.3"><path d="
M 717.00 195.00 
C 554.34 194.90 391.66 195.00 229.00 195.00
C 228.50 195.00 227.49 195.06 227.00 195.00
C 237.80 197.08 248.25 195.59 259.00 196.00 C 269.75 196.41 281.13 195.82 292.00 196.00 C 302.87 196.18 314.09 195.92 325.00 196.00 C 335.91 196.08 347.11 195.96 358.00 196.00 C 368.89 196.04 379.10 195.98 390.00 196.00 C 400.90 196.02 412.05 196.00 423.00 196.00 C 433.95 196.00 445.04 196.00 456.00 196.00 C 466.96 196.00 478.06 196.01 489.00 196.00 C 499.94 195.99 511.12 196.03 522.00 196.00 C 532.88 195.97 543.15 196.07 554.00 196.00 C 564.85 195.93 576.17 196.16 587.00 196.00 C 597.83 195.84 609.30 196.35 620.00 196.00 C 630.70 195.65 642.64 196.77 653.00 196.00 C 663.36 195.23 676.40 197.71 686.00 196.00 C 695.60 194.29 709.70 200.40 717.00 195.00 Z"/>
</g>
<g fill="None" fill-opacity="0.0" stroke="#CFFEFE" stroke-opacity="0.09" stroke-width="0.3"><path d="
M 217.00 205.00 
C 217.25 205.25 217.00 206.00 217.00 206.00
C 234.51 207.58 252.41 205.29 270.00 206.00 C 287.59 206.71 305.39 205.68 323.00 206.00 C 340.61 206.32 358.41 205.87 376.00 206.00 C 393.59 206.13 411.48 205.96 429.00 206.00 C 446.52 206.04 463.54 206.03 481.00 206.00 C 498.46 205.97 516.63 206.11 534.00 206.00 C 551.37 205.89 569.91 206.28 587.00 206.00 C 604.09 205.72 623.58 206.62 640.00 206.00 C 656.42 205.38 678.08 207.38 693.00 206.00 C 707.92 204.62 728.46 211.10 737.00 198.00
C 706.05 210.13 672.26 204.03 638.00 205.00 C 603.74 205.97 567.74 204.57 533.00 205.00 C 498.26 205.43 461.93 204.81 427.00 205.00 C 392.07 205.19 356.96 204.93 322.00 205.00 C 287.04 205.07 251.97 205.00 217.00 205.00 Z"/>
</g>
<g fill="None" fill-opacity="0.0" stroke="#D4FEFF" stroke-opacity="0.08" stroke-width="0.3"><path d="
M 213.00 206.00 
C 213.00 205.50 213.00 205.00 213.00 205.00
C 194.67 205.00 176.33 205.00 158.00 205.00
C 158.00 205.00 157.50 204.97 157.00 205.00
C 173.54 207.69 195.58 207.57 213.00 206.00 Z"/>
</g>
<g fill="None" fill-opacity="0.0" stroke="#7F8081" stroke-opacity="0.58" stroke-width="0.3"><path d="
M 213.00 206.00 
C 213.00 214.50 213.64 223.55 213.00 232.00 C 212.36 240.45 214.71 249.75 213.00 258.00
C 216.62 243.40 215.42 220.66 214.00 205.00
C 214.00 205.00 213.50 205.00 213.00 205.00
C 213.00 205.00 213.00 205.50 213.00 206.00 Z"/>
</g>
<g fill="None" fill-opacity="0.0" stroke="#C5C6C7" stroke-opacity="0.24" stroke-width="0.3"><path d="
M 204.00 273.00 
C 204.23 273.16 204.00 274.00 204.00 274.00
C 205.86 274.09 207.38 272.17 209.00 274.00
C 210.13 270.79 212.79 268.19 216.00 267.00
C 217.62 247.94 217.01 226.18 217.00 206.00
C 217.00 206.00 217.25 205.25 217.00 205.00
C 217.00 205.00 216.50 205.00 216.00 205.00
C 214.26 224.21 225.71 264.82 204.00 273.00 Z"/>
</g>
<g fill="None" fill-opacity="0.0" stroke="#B9B9B9" stroke-opacity="0.11" stroke-width="0.3"><path d="
M 203.00 268.00 
C 208.93 266.53 211.53 263.93 213.00 258.00
C 211.32 259.37 211.56 262.23 210.00 264.00
C 208.35 262.37 203.83 264.82 206.00 267.00
C 204.01 264.30 201.54 268.28 203.00 268.00 Z"/>
</g>
<g fill="None" fill-opacity="0.0" stroke="#D9D9D9" stroke-opacity="0.17" stroke-width="0.3"><path d="
M 105.00 267.00 
C 103.36 264.65 99.65 261.63 99.00 259.00
C 100.00 262.18 101.67 265.37 105.00 267.00 Z"/>
</g>
<g fill="None" fill-opacity="0.0" stroke="#B6B6B6" stroke-opacity="0.31" stroke-width="0.3"><path d="
M 106.00 267.00 
C 110.21 272.51 122.08 267.86 129.00 269.00 C 135.92 270.14 146.39 268.55 154.00 269.00 C 161.61 269.45 171.19 268.94 179.00 269.00 C 186.81 269.06 195.93 269.75 203.00 268.00
C 195.07 269.54 186.02 267.07 178.00 268.00 C 169.98 268.93 160.89 267.07 153.00 268.00 C 145.11 268.93 135.46 266.44 128.00 268.00 C 120.54 269.56 110.96 265.04 106.00 267.00 Z"/>
</g>
<g fill="None" fill-opacity="0.0" stroke="#555555" stroke-opacity="0.85" stroke-width="0.3"><path d="
M 106.00 273.00 
C 107.18 273.53 107.24 273.99 109.00 274.00
C 109.50 274.00 110.50 274.00 111.00 274.00
C 111.23 273.66 111.00 273.00 111.00 273.00
C 114.98 268.88 126.93 272.99 133.00 272.00 C 139.07 271.01 149.53 272.01 156.00 272.00 C 162.47 271.99 172.92 271.02 179.00 272.00 C 185.08 272.98 197.05 268.91 201.00 273.00
C 201.25 273.26 201.00 274.00 201.00 274.00
C 201.50 274.00 202.50 274.00 203.00 274.00
C 203.00 274.00 203.53 274.12 204.00 274.00
C 204.00 274.00 204.23 273.16 204.00 273.00
C 201.19 273.03 203.02 271.95 204.00 271.00
C 197.43 271.03 190.53 270.96 184.00 271.00 C 177.47 271.04 170.41 270.92 164.00 271.00 C 157.59 271.08 150.12 270.84 144.00 271.00 C 137.88 271.16 129.46 270.64 124.00 271.00 C 118.54 271.36 107.77 269.32 110.00 273.00
C 108.69 272.84 107.30 273.21 106.00 273.00 Z"/>
</g>
<g fill="None" fill-opacity="0.0" stroke="#858585" stroke-opacity="0.62" stroke-width="0.3"><path d="
M 111.00 273.00 
C 125.72 271.67 141.21 273.00 156.00 273.00 C 170.79 273.00 186.28 271.67 201.00 273.00
C 197.05 268.91 185.08 272.98 179.00 272.00 C 172.92 271.02 162.47 271.99 156.00 272.00 C 149.53 272.01 139.07 271.01 133.00 272.00 C 126.93 272.99 114.98 268.88 111.00 273.00 Z"/>
</g>
<g fill="None" fill-opacity="0.0" stroke="#141414" stroke-opacity="1.00" stroke-width="0.3"><path d="
M 111.00 274.00 
C 141.00 274.00 171.00 274.00 201.00 274.00
C 201.00 274.00 201.25 273.26 201.00 273.00
C 186.28 271.67 170.79 273.00 156.00 273.00 C 141.21 273.00 125.72 271.67 111.00 273.00
C 111.00 273.00 111.23 273.66 111.00 274.00 Z"/>
</g>
<g fill="None" fill-opacity="0.0" stroke="#D3D3D3" stroke-opacity="0.20" stroke-width="0.3"><path d="
M 203.00 274.00 
C 202.50 274.00 201.50 274.00 201.00 274.00
C 171.00 274.00 141.00 274.00 111.00 274.00
C 110.50 274.00 109.50 274.00 109.00 274.00
C 117.81 276.18 130.36 275.29 140.00 275.00 C 149.64 274.71 162.87 276.50 172.00 275.00 C 181.13 273.50 196.01 279.17 203.00 274.00 Z"/>
</g>
<g fill="#000000" fill-opacity="0.00" stroke="None">
<path d="
M 0.00 296.00 
L 844.00 296.00
L 844.00 0.00
L 0.00 0.00
L 0.00 296.00
M 109.00 29.00 
C 124.38 27.61 140.55 29.00 156.00 29.00 C 171.45 29.00 187.62 27.61 203.00 29.00
C 209.45 29.95 210.23 32.65 216.00 35.00
C 213.77 38.20 217.92 43.44 217.00 50.00 C 216.08 56.56 217.69 65.25 217.00 72.00
C 221.99 72.73 217.47 86.21 219.00 91.00 C 220.53 95.79 217.81 105.89 217.00 110.00
C 258.32 106.26 300.47 111.34 342.00 110.00 C 383.53 108.66 426.46 109.88 468.00 110.00 C 509.54 110.12 551.66 108.30 593.00 110.00 C 634.34 111.70 677.84 105.18 718.00 111.00
C 720.09 111.08 721.55 110.60 723.00 112.00
C 723.50 112.00 724.00 112.00 724.00 112.00
C 738.86 112.56 749.60 126.64 754.92 140.08 C 760.24 153.51 756.98 176.92 748.00 189.00
C 746.01 191.67 743.60 194.03 741.00 196.00
C 740.09 196.69 739.05 197.61 738.00 198.00
C 737.56 198.16 737.00 198.00 737.00 198.00
C 728.46 211.10 707.92 204.62 693.00 206.00 C 678.08 207.38 656.42 205.38 640.00 206.00 C 623.58 206.62 604.09 205.72 587.00 206.00 C 569.91 206.28 551.37 205.89 534.00 206.00 C 516.63 206.11 498.46 205.97 481.00 206.00 C 463.54 206.03 446.52 206.04 429.00 206.00 C 411.48 205.96 393.59 206.13 376.00 206.00 C 358.41 205.87 340.61 206.32 323.00 206.00 C 305.39 205.68 287.59 206.71 270.00 206.00 C 252.41 205.29 234.51 207.58 217.00 206.00
C 217.01 226.18 217.62 247.94 216.00 267.00
C 212.79 268.19 210.13 270.79 209.00 274.00
C 207.38 272.17 205.86 274.09 204.00 274.00
C 203.53 274.12 203.00 274.00 203.00 274.00
C 196.01 279.17 181.13 273.50 172.00 275.00 C 162.87 276.50 149.64 274.71 140.00 275.00 C 130.36 275.29 117.81 276.18 109.00 274.00
C 107.24 273.99 107.18 273.53 106.00 273.00
C 103.74 271.98 102.79 271.37 101.00 270.00
C 94.43 264.96 94.87 260.59 95.00 252.00 C 95.13 243.41 95.04 233.64 95.00 225.00 C 94.96 216.36 95.23 206.45 95.00 198.00 C 94.77 189.55 95.60 179.96 95.00 172.00 C 94.40 164.04 96.32 151.95 95.00 145.00 C 93.68 138.05 98.84 123.14 93.00 120.00
C 92.54 114.96 92.54 109.04 93.00 104.00
C 98.30 101.15 93.76 88.87 95.00 83.00 C 96.24 77.13 94.08 66.31 95.00 60.00 C 95.92 53.69 93.78 44.11 95.22 38.78 C 96.65 33.44 102.45 31.88 107.00 30.00
C 102.66 28.26 109.96 26.51 112.00 27.00
C 111.76 28.67 109.15 27.17 109.00 29.00 Z"/>
</g>
<g fill="#D7D7D7" fill-opacity="0.03" stroke="None">
<path d="
M 107.00 30.00 
C 107.40 29.80 108.50 30.00 109.00 30.00
C 109.23 29.66 109.00 29.00 109.00 29.00
C 109.15 27.17 111.76 28.67 112.00 27.00
C 109.96 26.51 102.66 28.26 107.00 30.00 Z"/>
</g>
<g fill="#848484" fill-opacity="0.61" stroke="None">
<path d="
M 109.00 30.00 
C 110.00 30.00 111.00 30.00 112.00 30.00
C 141.33 30.00 170.67 30.00 200.00 30.00
C 200.96 30.00 202.05 29.87 203.00 30.00
C 202.84 29.94 203.00 29.00 203.00 29.00
C 187.62 27.61 171.45 29.00 156.00 29.00 C 140.55 29.00 124.38 27.61 109.00 29.00
C 109.00 29.00 109.23 29.66 109.00 30.00 Z"/>
</g>
<g fill="#BFBFBF" fill-opacity="0.21" stroke="None">
<path d="
M 203.00 30.00 
C 221.81 32.49 214.85 59.25 216.00 72.00
C 216.00 72.04 217.00 72.00 217.00 72.00
C 217.69 65.25 216.08 56.56 217.00 50.00 C 217.92 43.44 213.77 38.20 216.00 35.00
C 210.23 32.65 209.45 29.95 203.00 29.00
C 203.00 29.00 202.84 29.94 203.00 30.00 Z"/>
</g>
<g fill="#BEBEBE" fill-opacity="0.29" stroke="None">
<path d="
M 93.00 104.00 
C 93.00 103.96 94.00 104.00 94.00 104.00
C 94.50 104.00 95.00 104.00 95.00 104.00
C 95.50 104.00 96.00 104.00 96.00 104.00
C 96.00 84.63 92.50 60.17 97.00 42.00
C 98.34 36.58 102.01 32.45 107.00 30.00
C 102.45 31.88 96.65 33.44 95.22 38.78 C 93.78 44.11 95.92 53.69 95.00 60.00 C 94.08 66.31 96.24 77.13 95.00 83.00 C 93.76 88.87 98.30 101.15 93.00 104.00 Z"/>
</g>
<g fill="#232323" fill-opacity="0.98" stroke="None">
<path d="
M 97.00 42.00 
C 94.05 65.82 97.72 90.95 97.00 115.00 C 96.28 139.05 95.96 163.91 97.00 188.00 C 98.04 212.09 93.59 238.14 97.00 262.00
C 97.77 264.85 98.79 267.72 101.00 270.00
C 102.79 271.37 103.74 271.98 106.00 273.00
C 107.30 273.21 108.69 272.84 110.00 273.00
C 107.77 269.32 118.54 271.36 124.00 271.00 C 129.46 270.64 137.88 271.16 144.00 271.00 C 150.12 270.84 157.59 271.08 164.00 271.00 C 170.41 270.92 177.47 271.04 184.00 271.00 C 190.53 270.96 197.43 271.03 204.00 271.00
C 203.02 271.95 201.19 273.03 204.00 273.00
C 225.71 264.82 214.26 224.21 216.00 205.00
C 215.50 205.00 214.50 205.00 214.00 205.00
C 215.42 220.66 216.62 243.40 213.00 258.00
C 211.53 263.93 208.93 266.53 203.00 268.00
C 195.93 269.75 186.81 269.06 179.00 269.00 C 171.19 268.94 161.61 269.45 154.00 269.00 C 146.39 268.55 135.92 270.14 129.00 269.00 C 122.08 267.86 110.21 272.51 106.00 267.00
C 105.57 267.17 105.00 267.00 105.00 267.00
C 101.67 265.37 100.00 262.18 99.00 259.00
C 96.81 252.09 98.33 243.77 98.00 236.00 C 97.67 228.23 98.14 219.89 98.00 212.00 C 97.86 204.11 98.04 195.93 98.00 188.00 C 97.96 180.07 97.97 171.93 98.00 164.00 C 98.03 156.07 97.88 147.87 98.00 140.00 C 98.12 132.13 97.70 123.73 98.00 116.00 C 98.30 108.27 97.34 99.40 98.00 92.00 C 98.66 84.60 96.52 74.68 98.00 68.00 C 99.48 61.32 94.40 48.42 99.00 44.00
C 99.44 39.26 104.64 35.64 109.00 35.00
C 114.74 34.48 126.02 33.32 130.00 37.00
C 131.04 37.96 131.49 41.29 133.00 42.00
C 140.03 45.33 152.25 40.47 160.00 42.00 C 167.75 43.53 178.19 43.37 182.00 37.00
C 182.19 36.68 182.75 36.25 183.00 36.00
C 183.25 35.75 183.70 35.22 184.00 35.00
C 187.82 32.19 198.99 33.86 203.00 35.00
C 206.27 35.43 210.49 37.85 212.00 41.00
C 212.83 42.74 213.07 43.98 213.00 46.00
C 216.53 64.95 215.79 91.15 214.00 111.00
C 214.50 111.00 215.58 110.82 216.00 111.00
C 214.85 106.39 220.45 97.60 218.00 92.00 C 215.55 86.40 221.85 75.14 216.00 72.00
C 214.85 59.25 221.81 32.49 203.00 30.00
C 202.05 29.87 200.96 30.00 200.00 30.00
C 199.75 30.27 200.00 31.00 200.00 31.00
C 202.50 31.93 192.43 32.22 188.00 32.00 C 183.57 31.79 176.09 32.09 171.00 32.00 C 165.91 31.91 159.37 32.04 154.00 32.00 C 148.63 31.96 142.44 32.00 137.00 32.00
C 134.33 32.00 131.67 32.00 129.00 32.00
C 122.33 32.00 115.67 32.00 109.00 32.00
C 109.26 30.61 111.05 31.22 112.00 31.00
C 112.08 30.99 112.00 30.00 112.00 30.00
C 111.00 30.00 110.00 30.00 109.00 30.00
C 108.50 30.00 107.40 29.80 107.00 30.00
C 102.01 32.45 98.34 36.58 97.00 42.00
M 170.00 38.00 
C 161.74 39.65 150.19 39.68 142.00 38.00
C 150.26 36.35 161.81 36.32 170.00 38.00 Z"/>
</g>
<g fill="#4C4C4C" fill-opacity="0.92" stroke="None">
<path d="
M 112.00 31.00 
C 117.56 31.50 123.41 31.00 129.00 31.00
C 131.67 31.00 134.33 31.00 137.00 31.00
C 157.71 31.00 179.38 32.86 200.00 31.00
C 200.00 31.00 199.75 30.27 200.00 30.00
C 170.67 30.00 141.33 30.00 112.00 30.00
C 112.00 30.00 112.08 30.99 112.00 31.00 Z"/>
</g>
<g fill="#7E7E7E" fill-opacity="0.71" stroke="None">
<path d="
M 129.00 32.00 
C 128.96 32.00 129.00 31.00 129.00 31.00
C 123.41 31.00 117.56 31.50 112.00 31.00
C 111.05 31.22 109.26 30.61 109.00 32.00
C 115.67 32.00 122.33 32.00 129.00 32.00 Z"/>
</g>
<g fill="#818181" fill-opacity="0.87" stroke="None">
<path d="
M 129.00 32.00 
C 131.67 32.00 134.33 32.00 137.00 32.00
C 136.96 32.00 137.00 31.00 137.00 31.00
C 134.33 31.00 131.67 31.00 129.00 31.00
C 129.00 31.00 128.96 32.00 129.00 32.00 Z"/>
</g>
<g fill="#808080" fill-opacity="0.65" stroke="None">
<path d="
M 137.00 32.00 
C 142.44 32.00 148.63 31.96 154.00 32.00 C 159.37 32.04 165.91 31.91 171.00 32.00 C 176.09 32.09 183.57 31.79 188.00 32.00 C 192.43 32.22 202.50 31.93 200.00 31.00
C 179.38 32.86 157.71 31.00 137.00 31.00
C 137.00 31.00 136.96 32.00 137.00 32.00 Z"/>
</g>
<g fill="#3A3A3A" fill-opacity="0.85" stroke="None">
<path d="
M 184.00 35.00 
C 188.77 34.31 194.17 35.00 199.00 35.00
C 199.50 35.00 200.00 35.00 200.00 35.00
C 200.96 35.00 202.05 34.87 203.00 35.00
C 198.99 33.86 187.82 32.19 184.00 35.00 Z"/>
</g>
<g fill="#CACACA" fill-opacity="0.23" stroke="None">
<path d="
M 99.00 44.00 
C 98.95 44.50 99.00 45.00 99.00 45.00
C 100.47 40.95 104.16 36.98 109.00 36.00
C 109.10 35.98 109.00 35.00 109.00 35.00
C 104.64 35.64 99.44 39.26 99.00 44.00 Z"/>
</g>
<g fill="#ECECEC" fill-opacity="0.02" stroke="None">
<path d="
M 109.00 36.00 
C 116.32 36.66 125.85 35.54 130.00 37.00
C 126.02 33.32 114.74 34.48 109.00 35.00
C 109.00 35.00 109.10 35.98 109.00 36.00 Z"/>
</g>
<g fill="#FDFDFD" fill-opacity="0.02" stroke="None">
<path d="
M 183.00 36.00 
C 187.74 35.32 195.28 37.75 199.00 35.00
C 194.17 35.00 188.77 34.31 184.00 35.00
C 183.70 35.22 183.25 35.75 183.00 36.00 Z"/>
</g>
<g fill="#000000" fill-opacity="0.00" stroke="None">
<path d="
M 183.00 36.00 
C 182.75 36.25 182.19 36.68 182.00 37.00
C 181.58 38.79 181.16 40.43 182.00 42.00
C 166.30 43.54 148.28 43.76 133.00 42.00
C 130.88 40.91 129.07 40.34 130.00 37.00
C 125.85 35.54 116.32 36.66 109.00 36.00
C 104.16 36.98 100.47 40.95 99.00 45.00
C 99.00 59.12 98.88 72.84 99.00 87.00 C 99.12 101.16 98.70 115.80 99.00 130.00 C 99.30 144.20 98.32 158.86 99.00 173.00 C 99.68 187.14 97.49 202.06 99.00 216.00 C 100.51 229.94 95.66 245.51 99.00 259.00
C 99.65 261.63 103.36 264.65 105.00 267.00
C 105.00 267.00 105.57 267.17 106.00 267.00
C 110.96 265.04 120.54 269.56 128.00 268.00 C 135.46 266.44 145.11 268.93 153.00 268.00 C 160.89 267.07 169.98 268.93 178.00 268.00 C 186.02 267.07 195.07 269.54 203.00 268.00
C 201.54 268.28 204.01 264.30 206.00 267.00
C 203.83 264.82 208.35 262.37 210.00 264.00
C 211.56 262.23 211.32 259.37 213.00 258.00
C 214.71 249.75 212.36 240.45 213.00 232.00 C 213.64 223.55 213.00 214.50 213.00 206.00
C 195.58 207.57 173.54 207.69 157.00 205.00
C 139.53 206.17 120.39 185.68 120.00 169.00
C 119.99 168.50 120.00 168.00 120.00 168.00
C 115.76 162.28 119.70 147.36 120.98 140.98 C 122.25 134.59 127.32 126.80 132.25 122.25 C 137.17 117.69 145.15 112.26 152.00 112.00
C 152.50 111.98 153.00 112.00 153.00 112.00
C 161.37 108.35 172.28 109.98 182.00 110.00 C 191.72 110.02 203.21 109.11 213.00 110.00
C 212.99 89.33 213.00 68.67 213.00 48.00
C 212.76 46.23 211.08 41.10 209.00 39.00
C 206.22 37.02 201.77 37.23 200.00 35.00
C 200.00 35.00 199.50 35.00 199.00 35.00
C 195.28 37.75 187.74 35.32 183.00 36.00
M 205.00 61.00 
C 205.58 62.99 205.47 64.23 205.00 66.00
C 202.45 75.57 186.82 72.15 178.00 72.00 C 169.18 71.85 153.94 73.50 145.00 72.00 C 136.06 70.50 118.97 76.15 112.00 71.00
C 111.50 71.00 111.00 71.00 111.00 71.00
C 106.65 70.17 104.48 64.22 107.00 61.00
C 107.03 60.50 107.00 60.00 107.00 60.00
C 107.50 52.06 122.45 55.44 129.00 55.00 C 135.55 54.56 148.46 55.05 156.00 55.00 C 163.54 54.95 175.44 54.69 183.00 55.00 C 190.56 55.31 202.39 52.07 205.00 61.00
M 140.00 98.00 
C 140.93 103.28 137.46 106.13 132.00 104.00
C 122.07 100.13 132.45 86.99 140.00 94.00
C 140.00 95.33 140.00 96.67 140.00 98.00
M 154.00 96.00 
C 154.20 96.40 154.00 97.00 154.00 97.00
C 158.82 103.27 145.16 108.69 142.70 101.30 C 140.24 93.91 150.27 88.38 154.00 96.00
M 174.00 93.00 
C 182.15 90.50 185.00 95.84 184.00 103.00
C 180.37 104.76 172.99 106.89 172.00 101.00
C 170.93 105.52 162.62 104.81 158.00 105.00
C 156.58 100.73 155.92 93.84 161.23 92.23 C 166.54 90.62 169.52 98.04 174.00 93.00 Z"/>
</g>
<g fill="#C0C0C0" fill-opacity="0.27" stroke="None">
<path d="
M 209.00 39.00 
C 209.72 39.51 211.55 40.37 212.00 41.00
C 210.49 37.85 206.27 35.43 203.00 35.00
C 202.05 34.87 200.96 35.00 200.00 35.00
C 201.77 37.23 206.22 37.02 209.00 39.00 Z"/>
</g>
<g fill="#ADADAD" fill-opacity="0.34" stroke="None">
<path d="
M 133.00 42.00 
C 131.49 41.29 131.04 37.96 130.00 37.00
C 129.07 40.34 130.88 40.91 133.00 42.00 Z"/>
</g>
<g fill="#A2A2A2" fill-opacity="0.41" stroke="None">
<path d="
M 142.00 38.00 
C 151.33 38.00 160.67 38.00 170.00 38.00
C 161.81 36.32 150.26 36.35 142.00 38.00 Z"/>
</g>
<g fill="#D9D9D9" fill-opacity="0.16" stroke="None">
<path d="
M 133.00 42.00 
C 148.28 43.76 166.30 43.54 182.00 42.00
C 181.16 40.43 181.58 38.79 182.00 37.00
C 178.19 43.37 167.75 43.53 160.00 42.00 C 152.25 40.47 140.03 45.33 133.00 42.00 Z"/>
</g>
<g fill="#828282" fill-opacity="0.53" stroke="None">
<path d="
M 170.00 38.00 
C 160.67 38.00 151.33 38.00 142.00 38.00
C 150.19 39.68 161.74 39.65 170.00 38.00 Z"/>
</g>
<g fill="#E4E4E4" fill-opacity="0.12" stroke="None">
<path d="
M 213.00 48.00 
C 213.00 47.50 212.98 46.50 213.00 46.00
C 213.07 43.98 212.83 42.74 212.00 41.00
C 211.55 40.37 209.72 39.51 209.00 39.00
C 211.08 41.10 212.76 46.23 213.00 48.00 Z"/>
</g>
<g fill="#464646" fill-opacity="0.93" stroke="None">
<path d="
M 96.00 104.00 
C 96.00 109.33 96.00 114.67 96.00 120.00
C 96.00 143.12 94.33 168.07 96.00 191.00 C 97.67 213.93 91.17 240.49 97.00 262.00
C 93.59 238.14 98.04 212.09 97.00 188.00 C 95.96 163.91 96.28 139.05 97.00 115.00 C 97.72 90.95 94.05 65.82 97.00 42.00
C 92.50 60.17 96.00 84.63 96.00 104.00 Z"/>
</g>
<g fill="#A7A7A7" fill-opacity="0.42" stroke="None">
<path d="
M 99.00 259.00 
C 95.66 245.51 100.51 229.94 99.00 216.00 C 97.49 202.06 99.68 187.14 99.00 173.00 C 98.32 158.86 99.30 144.20 99.00 130.00 C 98.70 115.80 99.12 101.16 99.00 87.00 C 98.88 72.84 99.00 59.12 99.00 45.00
C 99.00 45.00 98.95 44.50 99.00 44.00
C 94.40 48.42 99.48 61.32 98.00 68.00 C 96.52 74.68 98.66 84.60 98.00 92.00 C 97.34 99.40 98.30 108.27 98.00 116.00 C 97.70 123.73 98.12 132.13 98.00 140.00 C 97.88 147.87 98.03 156.07 98.00 164.00 C 97.97 171.93 97.96 180.07 98.00 188.00 C 98.04 195.93 97.86 204.11 98.00 212.00 C 98.14 219.89 97.67 228.23 98.00 236.00 C 98.33 243.77 96.81 252.09 99.00 259.00 Z"/>
</g>
<g fill="#818282" fill-opacity="0.57" stroke="None">
<path d="
M 213.00 48.00 
C 213.00 68.67 212.99 89.33 213.00 110.00
C 213.00 110.50 213.00 111.00 213.00 111.00
C 213.32 110.76 214.00 111.00 214.00 111.00
C 215.79 91.15 216.53 64.95 213.00 46.00
C 212.98 46.50 213.00 47.50 213.00 48.00 Z"/>
</g>
<g fill="#E8FDFE" fill-opacity="0.07" stroke="None">
<path d="
M 107.00 60.00 
C 113.98 52.56 128.38 56.30 138.00 56.00 C 147.62 55.70 164.89 55.21 174.00 56.00 C 183.11 56.79 201.24 51.44 205.00 61.00
C 202.39 52.07 190.56 55.31 183.00 55.00 C 175.44 54.69 163.54 54.95 156.00 55.00 C 148.46 55.05 135.55 54.56 129.00 55.00 C 122.45 55.44 107.50 52.06 107.00 60.00 Z"/>
</g>
<g fill="#73AEC1" fill-opacity="0.83" stroke="None">
<path d="
M 107.00 60.00 
C 107.00 60.00 107.03 60.50 107.00 61.00
C 106.73 64.97 108.13 68.31 111.00 71.00
C 111.00 71.00 111.50 71.00 112.00 71.00
C 122.01 71.00 134.21 71.40 144.00 71.00 C 153.79 70.60 168.08 72.02 177.00 71.00 C 185.92 69.98 201.25 75.38 205.00 66.00
C 205.47 64.23 205.58 62.99 205.00 61.00
C 201.24 51.44 183.11 56.79 174.00 56.00 C 164.89 55.21 147.62 55.70 138.00 56.00 C 128.38 56.30 113.98 52.56 107.00 60.00
M 190.00 58.00 
C 197.36 61.80 188.97 71.81 182.00 69.00 C 175.03 66.19 165.37 70.66 158.00 69.00 C 150.63 67.34 141.34 70.63 134.00 69.00 C 126.66 67.37 117.37 72.05 110.78 68.22 C 104.19 64.39 110.98 55.84 118.00 58.00 C 125.02 60.16 134.70 56.52 142.00 58.00 C 149.30 59.48 158.89 56.22 166.00 58.00 C 173.11 59.78 183.67 54.73 190.00 58.00
M 196.00 60.00 
C 196.45 59.85 197.52 59.90 198.00 60.00
C 201.53 60.77 200.15 66.10 196.92 65.92 C 193.70 65.75 193.17 60.92 196.00 60.00 Z"/>
</g>
<g fill="#E0FDFD" fill-opacity="0.09" stroke="None">
<path d="
M 190.00 58.00 
C 183.67 54.73 173.11 59.78 166.00 58.00 C 158.89 56.22 149.30 59.48 142.00 58.00 C 134.70 56.52 125.02 60.16 118.00 58.00 C 110.98 55.84 104.19 64.39 110.78 68.22 C 117.37 72.05 126.66 67.37 134.00 69.00 C 141.34 70.63 150.63 67.34 158.00 69.00 C 165.37 70.66 175.03 66.19 182.00 69.00 C 188.97 71.81 197.36 61.80 190.00 58.00
M 190.00 59.00 
C 196.57 63.65 186.42 70.03 181.00 68.00 C 175.58 65.97 166.97 68.69 161.00 68.00 C 155.03 67.31 147.06 67.81 141.00 68.00 C 134.94 68.19 126.73 66.81 121.00 68.00 C 115.27 69.19 106.21 66.12 110.77 60.77 C 115.33 55.42 123.06 59.98 129.00 59.00 C 134.94 58.02 143.02 58.88 149.00 59.00 C 154.98 59.12 163.44 57.71 169.00 59.00 C 174.56 60.29 185.60 55.89 190.00 59.00 Z"/>
</g>
<g fill="#000000" fill-opacity="0.00" stroke="None">
<path d="
M 190.00 59.00 
C 185.60 55.89 174.56 60.29 169.00 59.00 C 163.44 57.71 154.98 59.12 149.00 59.00 C 143.02 58.88 134.94 58.02 129.00 59.00 C 123.06 59.98 115.33 55.42 110.77 60.77 C 106.21 66.12 115.27 69.19 121.00 68.00 C 126.73 66.81 134.94 68.19 141.00 68.00 C 147.06 67.81 155.03 67.31 161.00 68.00 C 166.97 68.69 175.58 65.97 181.00 68.00 C 186.42 70.03 196.57 63.65 190.00 59.00 Z"/>
</g>
<g fill="#C9F5FD" fill-opacity="0.16" stroke="None">
<path d="
M 198.00 60.00 
C 200.67 62.21 197.81 65.21 195.00 64.00
C 194.63 62.46 196.43 61.60 196.00 60.00
C 193.17 60.92 193.70 65.75 196.92 65.92 C 200.15 66.10 201.53 60.77 198.00 60.00 Z"/>
</g>
<g fill="#000000" fill-opacity="0.00" stroke="None">
<path d="
M 198.00 60.00 
C 197.52 59.90 196.45 59.85 196.00 60.00
C 196.43 61.60 194.63 62.46 195.00 64.00
C 197.81 65.21 200.67 62.21 198.00 60.00 Z"/>
</g>
<g fill="#D2F4F4" fill-opacity="0.15" stroke="None">
<path d="
M 111.00 71.00 
C 108.13 68.31 106.73 64.97 107.00 61.00
C 104.48 64.22 106.65 70.17 111.00 71.00 Z"/>
</g>
<g fill="#DFFDFE" fill-opacity="0.07" stroke="None">
<path d="
M 112.00 71.00 
C 118.97 76.15 136.06 70.50 145.00 72.00 C 153.94 73.50 169.18 71.85 178.00 72.00 C 186.82 72.15 202.45 75.57 205.00 66.00
C 201.25 75.38 185.92 69.98 177.00 71.00 C 168.08 72.02 153.79 70.60 144.00 71.00 C 134.21 71.40 122.01 71.00 112.00 71.00 Z"/>
</g>
<g fill="#A5A7A7" fill-opacity="0.39" stroke="None">
<path d="
M 216.00 111.00 
C 216.24 111.25 217.00 111.00 217.00 111.00
C 217.25 110.75 217.00 110.00 217.00 110.00
C 217.81 105.89 220.53 95.79 219.00 91.00 C 217.47 86.21 221.99 72.73 217.00 72.00
C 217.00 72.00 216.00 72.04 216.00 72.00
C 221.85 75.14 215.55 86.40 218.00 92.00 C 220.45 97.60 214.85 106.39 216.00 111.00 Z"/>
</g>
<g fill="#D1F4F9" fill-opacity="0.24" stroke="None">
<path d="
M 132.00 104.00 
C 126.67 102.18 128.92 91.94 135.00 94.00 C 141.09 96.06 135.88 96.75 139.00 100.00
C 139.34 99.23 139.83 99.20 140.00 98.00
C 140.00 96.67 140.00 95.33 140.00 94.00
C 132.45 86.99 122.07 100.13 132.00 104.00 Z"/>
</g>
<g fill="#F5D1F1" fill-opacity="0.18" stroke="None">
<path d="
M 154.00 97.00 
C 154.50 102.60 145.76 108.06 143.25 100.75 C 140.74 93.44 149.68 92.23 154.00 96.00
C 150.27 88.38 140.24 93.91 142.70 101.30 C 145.16 108.69 158.82 103.27 154.00 97.00 Z"/>
</g>
<g fill="#F6E9E3" fill-opacity="0.12" stroke="None">
<path d="
M 172.00 101.00 
C 172.37 99.43 171.59 97.56 172.00 96.00
C 172.15 95.42 173.60 93.28 174.00 93.00
C 169.52 98.04 166.54 90.62 161.23 92.23 C 155.92 93.84 156.58 100.73 158.00 105.00
C 162.62 104.81 170.93 105.52 172.00 101.00
M 165.00 93.00 
C 170.95 94.60 169.10 105.48 162.00 104.00 C 154.89 102.52 158.12 91.15 165.00 93.00 Z"/>
</g>
<g fill="#CEE8EA" fill-opacity="0.16" stroke="None">
<path d="
M 174.00 93.00 
C 173.60 93.28 172.15 95.42 172.00 96.00
C 173.66 91.35 182.45 92.73 182.97 98.03 C 183.50 103.32 173.96 106.91 172.00 101.00
C 172.99 106.89 180.37 104.76 184.00 103.00
C 185.00 95.84 182.15 90.50 174.00 93.00 Z"/>
</g>
<g fill="#C958B0" fill-opacity="0.95" stroke="None">
<path d="
M 154.00 97.00 
C 154.00 97.00 154.20 96.40 154.00 96.00
C 149.68 92.23 140.74 93.44 143.25 100.75 C 145.76 108.06 154.50 102.60 154.00 97.00 Z"/>
</g>
<g fill="#E88578" fill-opacity="0.94" stroke="None">
<path d="
M 165.00 93.00 
C 158.12 91.15 154.89 102.52 162.00 104.00 C 169.10 105.48 170.95 94.60 165.00 93.00 Z"/>
</g>
<g fill="#277379" fill-opacity="0.96" stroke="None">
<path d="
M 172.00 96.00 
C 171.59 97.56 172.37 99.43 172.00 101.00
C 173.96 106.91 183.50 103.32 182.97 98.03 C 182.45 92.73 173.66 91.35 172.00 96.00 Z"/>
</g>
<g fill="#77CFE5" fill-opacity="0.94" stroke="None">
<path d="
M 132.00 104.00 
C 135.93 105.34 137.77 102.81 139.00 100.00
C 135.88 96.75 141.09 96.06 135.00 94.00 C 128.92 91.94 126.67 102.18 132.00 104.00 Z"/>
</g>
<g fill="#EDFDFF" fill-opacity="0.06" stroke="None">
<path d="
M 139.00 100.00 
C 137.77 102.81 135.93 105.34 132.00 104.00
C 137.46 106.13 140.93 103.28 140.00 98.00
C 139.83 99.20 139.34 99.23 139.00 100.00 Z"/>
</g>
<g fill="#757575" fill-opacity="0.61" stroke="None">
<path d="
M 93.00 120.00 
C 93.00 120.04 94.00 120.00 94.00 120.00
C 93.52 114.71 94.48 109.29 94.00 104.00
C 94.00 104.00 93.00 103.96 93.00 104.00
C 92.54 109.04 92.54 114.96 93.00 120.00 Z"/>
</g>
<g fill="#010101" fill-opacity="1.00" stroke="None">
<path d="
M 94.00 120.00 
C 94.50 120.00 95.00 120.00 95.00 120.00
C 94.52 114.71 95.48 109.29 95.00 104.00
C 95.00 104.00 94.50 104.00 94.00 104.00
C 94.48 109.29 93.52 114.71 94.00 120.00 Z"/>
</g>
<g fill="#818181" fill-opacity="0.65" stroke="None">
<path d="
M 95.00 120.00 
C 95.50 120.00 96.00 120.00 96.00 120.00
C 96.00 114.67 96.00 109.33 96.00 104.00
C 96.00 104.00 95.50 104.00 95.00 104.00
C 95.48 109.29 94.52 114.71 95.00 120.00 Z"/>
</g>
<g fill="#DDFDFE" fill-opacity="0.05" stroke="None">
<path d="
M 153.00 112.00 
C 154.67 112.00 156.33 112.00 158.00 112.00
C 175.51 110.14 194.87 112.64 213.00 111.00
C 213.00 111.00 213.00 110.50 213.00 110.00
C 203.21 109.11 191.72 110.02 182.00 110.00 C 172.28 109.98 161.37 108.35 153.00 112.00 Z"/>
</g>
<g fill="#E4FFFF" fill-opacity="0.04" stroke="None">
<path d="
M 217.00 111.00 
C 300.40 110.98 383.58 109.75 467.00 111.00 C 550.42 112.25 634.61 107.67 718.00 111.00
C 677.84 105.18 634.34 111.70 593.00 110.00 C 551.66 108.30 509.54 110.12 468.00 110.00 C 426.46 109.88 383.53 108.66 342.00 110.00 C 300.47 111.34 258.32 106.26 217.00 110.00
C 217.00 110.00 217.25 110.75 217.00 111.00 Z"/>
</g>
<g fill="#72B7CF" fill-opacity="0.70" stroke="None">
<path d="
M 158.00 112.00 
C 166.30 112.00 178.04 113.12 186.00 112.00 C 193.96 110.88 206.97 115.46 213.00 111.00
C 194.87 112.64 175.51 110.14 158.00 112.00 Z"/>
</g>
<g fill="#2FA6D9" fill-opacity="0.98" stroke="None">
<path d="
M 158.00 112.00 
C 156.33 112.00 154.67 112.00 153.00 112.00
C 153.00 112.00 152.50 111.98 152.00 112.00
C 141.66 117.41 134.00 120.27 127.08 131.08 C 120.15 141.88 120.00 154.75 120.00 168.00
C 120.00 168.00 119.99 168.50 120.00 169.00
C 122.07 172.79 122.89 177.82 125.00 182.00
C 127.90 186.54 132.88 192.16 137.00 196.00
C 143.43 201.13 151.82 201.14 158.00 205.00
C 176.33 205.00 194.67 205.00 213.00 205.00
C 213.50 205.00 214.00 205.00 214.00 205.00
C 214.50 205.00 215.50 205.00 216.00 205.00
C 216.50 205.00 217.00 205.00 217.00 205.00
C 251.97 205.00 287.04 205.07 322.00 205.00 C 356.96 204.93 392.07 205.19 427.00 205.00 C 461.93 204.81 498.26 205.43 533.00 205.00 C 567.74 204.57 603.74 205.97 638.00 205.00 C 672.26 204.03 706.05 210.13 737.00 198.00
C 737.00 198.00 737.56 198.16 738.00 198.00
C 745.28 187.59 752.94 183.38 754.99 169.99 C 757.04 156.60 755.42 144.33 749.75 132.25 C 744.07 120.18 732.65 119.03 724.00 112.00
C 724.00 112.00 723.50 112.00 723.00 112.00
C 706.18 112.00 689.87 112.00 673.00 112.00 C 656.13 112.00 638.93 112.01 622.00 112.00 C 605.07 111.99 587.95 112.02 571.00 112.00 C 554.05 111.98 536.93 112.04 520.00 112.00 C 503.07 111.96 485.87 112.09 469.00 112.00 C 452.13 111.91 435.82 112.19 419.00 112.00 C 402.18 111.81 384.76 112.42 368.00 112.00 C 351.24 111.58 333.55 112.93 317.00 112.00 C 300.45 111.07 282.03 114.06 266.00 112.00 C 249.97 109.94 230.20 117.03 216.00 111.00
C 215.58 110.82 214.50 111.00 214.00 111.00
C 214.00 111.00 213.32 110.76 213.00 111.00
C 206.97 115.46 193.96 110.88 186.00 112.00 C 178.04 113.12 166.30 112.00 158.00 112.00
M 719.00 121.00 
C 738.23 121.79 747.73 141.89 748.00 158.00 C 748.27 174.11 737.27 197.08 718.00 195.00
C 717.51 194.95 717.00 195.00 717.00 195.00
C 709.70 200.40 695.60 194.29 686.00 196.00 C 676.40 197.71 663.36 195.23 653.00 196.00 C 642.64 196.77 630.70 195.65 620.00 196.00 C 609.30 196.35 597.83 195.84 587.00 196.00 C 576.17 196.16 564.85 195.93 554.00 196.00 C 543.15 196.07 532.88 195.97 522.00 196.00 C 511.12 196.03 499.94 195.99 489.00 196.00 C 478.06 196.01 466.96 196.00 456.00 196.00 C 445.04 196.00 433.95 196.00 423.00 196.00 C 412.05 196.00 400.90 196.02 390.00 196.00 C 379.10 195.98 368.89 196.04 358.00 196.00 C 347.11 195.96 335.91 196.08 325.00 196.00 C 314.09 195.92 302.87 196.18 292.00 196.00 C 281.13 195.82 269.75 196.41 259.00 196.00 C 248.25 195.59 237.80 197.08 227.33 195.67
C 221.50 194.35 215.58 191.98 211.00 189.00
C 207.36 186.63 203.78 182.81 202.00 179.00
C 191.76 157.11 199.87 124.22 227.00 121.00
C 252.76 116.03 281.09 121.52 308.00 120.00 C 334.91 118.48 362.81 120.54 390.00 120.00 C 417.19 119.46 445.75 119.94 473.00 120.00 C 500.25 120.06 527.86 119.27 555.00 120.00 C 582.14 120.73 610.11 118.12 637.00 120.00 C 663.89 121.88 693.40 115.33 719.00 121.00
M 172.00 131.00 
C 180.81 131.33 187.71 139.14 188.99 148.01 C 190.27 156.88 185.97 166.07 177.30 170.30 C 168.64 174.54 160.00 170.15 152.00 169.00
C 151.98 170.83 154.46 173.73 152.00 175.00
C 151.12 177.08 143.23 186.00 141.00 186.00
C 138.24 186.00 136.73 180.29 134.00 180.00
C 137.36 175.19 142.69 171.77 146.00 167.00
C 157.12 169.07 145.08 155.33 147.93 147.93 C 150.77 140.52 154.95 130.69 165.00 131.00
C 167.72 130.44 169.32 130.41 172.00 131.00 Z"/>
</g>
<g fill="#73B6D0" fill-opacity="0.72" stroke="None">
<path d="
M 723.00 112.00 
C 721.55 110.60 720.09 111.08 718.00 111.00
C 634.61 107.67 550.42 112.25 467.00 111.00 C 383.58 109.75 300.40 110.98 217.00 111.00
C 217.00 111.00 216.24 111.25 216.00 111.00
C 230.20 117.03 249.97 109.94 266.00 112.00 C 282.03 114.06 300.45 111.07 317.00 112.00 C 333.55 112.93 351.24 111.58 368.00 112.00 C 384.76 112.42 402.18 111.81 419.00 112.00 C 435.82 112.19 452.13 111.91 469.00 112.00 C 485.87 112.09 503.07 111.96 520.00 112.00 C 536.93 112.04 554.05 111.98 571.00 112.00 C 587.95 112.02 605.07 111.99 622.00 112.00 C 638.93 112.01 656.13 112.00 673.00 112.00 C 689.87 112.00 706.18 112.00 723.00 112.00 Z"/>
</g>
<g fill="#CCF6FC" fill-opacity="0.15" stroke="None">
<path d="
M 120.00 168.00 
C 120.00 154.75 120.15 141.88 127.08 131.08 C 134.00 120.27 141.66 117.41 152.00 112.00
C 145.15 112.26 137.17 117.69 132.25 122.25 C 127.32 126.80 122.25 134.59 120.98 140.98 C 119.70 147.36 115.76 162.28 120.00 168.00 Z"/>
</g>
<g fill="#C1F0F9" fill-opacity="0.21" stroke="None">
<path d="
M 738.00 198.00 
C 739.05 197.61 740.09 196.69 741.00 196.00
C 743.15 194.03 746.14 191.13 748.00 189.00
C 756.98 176.92 760.24 153.51 754.92 140.08 C 749.60 126.64 738.86 112.56 724.00 112.00
C 732.65 119.03 744.07 120.18 749.75 132.25 C 755.42 144.33 757.04 156.60 754.99 169.99 C 752.94 183.38 745.28 187.59 738.00 198.00 Z"/>
</g>
<g fill="#C1C1C1" fill-opacity="0.30" stroke="None">
<path d="
M 101.00 270.00 
C 98.79 267.72 97.77 264.85 97.00 262.00
C 91.17 240.49 97.67 213.93 96.00 191.00 C 94.33 168.07 96.00 143.12 96.00 120.00
C 96.00 120.00 95.50 120.00 95.00 120.00
C 95.00 120.00 94.50 120.00 94.00 120.00
C 94.00 120.00 93.00 120.04 93.00 120.00
C 98.84 123.14 93.68 138.05 95.00 145.00 C 96.32 151.95 94.40 164.04 95.00 172.00 C 95.60 179.96 94.77 189.55 95.00 198.00 C 95.23 206.45 94.96 216.36 95.00 225.00 C 95.04 233.64 95.13 243.41 95.00 252.00 C 94.87 260.59 94.43 264.96 101.00 270.00 Z"/>
</g>
<g fill="#92D1E0" fill-opacity="0.53" stroke="None">
<path d="
M 227.00 121.00 
C 227.49 120.94 228.50 121.00 229.00 121.00
C 391.66 121.00 554.34 120.98 717.00 121.00
C 717.50 121.00 718.50 120.98 719.00 121.00
C 693.40 115.33 663.89 121.88 637.00 120.00 C 610.11 118.12 582.14 120.73 555.00 120.00 C 527.86 119.27 500.25 120.06 473.00 120.00 C 445.75 119.94 417.19 119.46 390.00 120.00 C 362.81 120.54 334.91 118.48 308.00 120.00 C 281.09 121.52 252.76 116.03 227.00 121.00 Z"/>
</g>
<g fill="#D0F4FB" fill-opacity="0.16" stroke="None">
<path d="
M 202.00 179.00 
C 203.65 181.79 208.30 186.93 211.00 189.00
C 215.58 191.98 221.50 194.35 227.00 195.00
C 227.49 195.06 228.50 195.00 229.00 195.00
C 188.88 189.27 190.04 127.33 229.00 121.00
C 228.50 121.00 227.49 120.94 227.00 121.00
C 199.87 124.22 191.76 157.11 202.00 179.00 Z"/>
</g>
<g fill="#000000" fill-opacity="0.00" stroke="None">
<path d="
M 229.00 195.00 
C 391.66 195.00 554.34 194.90 717.00 195.00
C 717.00 195.00 717.51 194.95 718.00 195.00
C 727.87 190.69 738.52 187.64 743.31 176.30 C 748.09 164.97 748.65 150.63 743.23 139.77 C 737.81 128.91 728.28 122.61 717.00 121.00
C 554.34 120.98 391.66 121.00 229.00 121.00
C 190.04 127.33 188.88 189.27 229.00 195.00 Z"/>
</g>
<g fill="#CAF2FB" fill-opacity="0.18" stroke="None">
<path d="
M 718.00 195.00 
C 737.27 197.08 748.27 174.11 748.00 158.00 C 747.73 141.89 738.23 121.79 719.00 121.00
C 718.50 120.98 717.50 121.00 717.00 121.00
C 728.28 122.61 737.81 128.91 743.23 139.77 C 748.65 150.63 748.09 164.97 743.31 176.30 C 738.52 187.64 727.87 190.69 718.00 195.00 Z"/>
</g>
<g fill="#96CDE5" fill-opacity="0.53" stroke="None">
<path d="
M 165.00 131.00 
C 165.50 131.04 166.00 131.00 166.00 131.00
C 167.67 131.00 169.33 131.00 171.00 131.00
C 171.50 131.00 172.00 131.00 172.00 131.00
C 169.32 130.41 167.72 130.44 165.00 131.00 Z"/>
</g>
<g fill="#BFEDF5" fill-opacity="0.20" stroke="None">
<path d="
M 141.00 186.00 
C 142.80 181.30 149.89 179.07 152.00 175.00
C 154.46 173.73 151.98 170.83 152.00 169.00
C 160.00 170.15 168.64 174.54 177.30 170.30 C 185.97 166.07 190.27 156.88 188.99 148.01 C 187.71 139.14 180.81 131.33 172.00 131.00
C 172.00 131.00 171.50 131.00 171.00 131.00
C 176.51 135.05 186.11 136.39 187.77 145.23 C 189.43 154.07 187.20 163.03 179.77 167.77 C 172.34 172.51 163.84 172.82 156.75 167.25 C 149.67 161.67 147.53 155.11 149.00 146.00 C 150.47 136.88 160.39 135.12 166.00 131.00
C 166.00 131.00 165.50 131.04 165.00 131.00
C 154.95 130.69 150.77 140.52 147.93 147.93 C 145.08 155.33 157.12 169.07 146.00 167.00
C 142.69 171.77 137.36 175.19 134.00 180.00
C 136.73 180.29 138.24 186.00 141.00 186.00
M 150.00 173.00 
C 150.10 175.69 140.93 182.30 140.00 182.00
C 138.71 181.59 137.48 180.17 137.00 179.00
C 141.18 176.75 143.37 171.08 148.00 170.00
C 148.30 171.25 149.83 171.71 150.00 173.00 Z"/>
</g>
<g fill="#000000" fill-opacity="0.00" stroke="None">
<path d="
M 171.00 131.00 
C 169.33 131.00 167.67 131.00 166.00 131.00
C 160.39 135.12 150.47 136.88 149.00 146.00 C 147.53 155.11 149.67 161.67 156.75 167.25 C 163.84 172.82 172.34 172.51 179.77 167.77 C 187.20 163.03 189.43 154.07 187.77 145.23 C 186.11 136.39 176.51 135.05 171.00 131.00 Z"/>
</g>
<g fill="#C5F0FA" fill-opacity="0.20" stroke="None">
<path d="
M 157.00 205.00 
C 157.50 204.97 158.00 205.00 158.00 205.00
C 151.82 201.14 143.43 201.13 137.00 196.00
C 132.02 192.03 127.80 187.54 125.00 182.00
C 122.89 177.82 122.07 172.79 120.00 169.00
C 120.39 185.68 139.53 206.17 157.00 205.00 Z"/>
</g>
<g fill="#33A0CB" fill-opacity="0.98" stroke="None">
<path d="
M 140.00 182.00 
C 143.80 182.00 146.24 173.54 150.00 173.00
C 149.83 171.71 148.30 171.25 148.00 170.00
C 143.37 171.08 141.18 176.75 137.00 179.00
C 137.48 180.17 138.71 181.59 140.00 182.00 Z"/>
</g>
<g fill="#56A6C2" fill-opacity="0.80" stroke="None">
<path d="
M 140.00 182.00 
C 140.93 182.30 150.10 175.69 150.00 173.00
C 146.24 173.54 143.80 182.00 140.00 182.00 Z"/>
</g>
<g fill="#54A8C3" fill-opacity="0.85" stroke="None">
<path d="
M 141.00 186.00 
C 143.23 186.00 151.12 177.08 152.00 175.00
C 149.89 179.07 142.80 181.30 141.00 186.00 Z"/>
</g>
<g fill="#53A4C3" fill-opacity="0.81" stroke="None">
<path d="
M 211.00 189.00 
C 208.30 186.93 203.65 181.79 202.00 179.00
C 203.78 182.81 207.36 186.63 211.00 189.00 Z"/>
</g>
<g fill="#5DA9C8" fill-opacity="0.78" stroke="None">
<path d="
M 137.00 196.00 
C 132.88 192.16 127.90 186.54 125.00 182.00
C 127.80 187.54 132.02 192.03 137.00 196.00 Z"/>
</g>
<g fill="#EBFFFF" fill-opacity="0.02" stroke="None">
<path d="
M 741.00 196.00 
C 743.60 194.03 746.01 191.67 748.00 189.00
C 746.14 191.13 743.15 194.03 741.00 196.00 Z"/>
</g>
<g fill="#AFE4F0" fill-opacity="0.35" stroke="None">
<path d="
M 717.00 195.00 
C 554.34 194.90 391.66 195.00 229.00 195.00
C 228.50 195.00 227.49 195.06 227.00 195.00
C 237.80 197.08 248.25 195.59 259.00 196.00 C 269.75 196.41 281.13 195.82 292.00 196.00 C 302.87 196.18 314.09 195.92 325.00 196.00 C 335.91 196.08 347.11 195.96 358.00 196.00 C 368.89 196.04 379.10 195.98 390.00 196.00 C 400.90 196.02 412.05 196.00 423.00 196.00 C 433.95 196.00 445.04 196.00 456.00 196.00 C 466.96 196.00 478.06 196.01 489.00 196.00 C 499.94 195.99 511.12 196.03 522.00 196.00 C 532.88 195.97 543.15 196.07 554.00 196.00 C 564.85 195.93 576.17 196.16 587.00 196.00 C 597.83 195.84 609.30 196.35 620.00 196.00 C 630.70 195.65 642.64 196.77 653.00 196.00 C 663.36 195.23 676.40 197.71 686.00 196.00 C 695.60 194.29 709.70 200.40 717.00 195.00 Z"/>
</g>
<g fill="#CFFEFE" fill-opacity="0.09" stroke="None">
<path d="
M 217.00 205.00 
C 217.25 205.25 217.00 206.00 217.00 206.00
C 234.51 207.58 252.41 205.29 270.00 206.00 C 287.59 206.71 305.39 205.68 323.00 206.00 C 340.61 206.32 358.41 205.87 376.00 206.00 C 393.59 206.13 411.48 205.96 429.00 206.00 C 446.52 206.04 463.54 206.03 481.00 206.00 C 498.46 205.97 516.63 206.11 534.00 206.00 C 551.37 205.89 569.91 206.28 587.00 206.00 C 604.09 205.72 623.58 206.62 640.00 206.00 C 656.42 205.38 678.08 207.38 693.00 206.00 C 707.92 204.62 728.46 211.10 737.00 198.00
C 706.05 210.13 672.26 204.03 638.00 205.00 C 603.74 205.97 567.74 204.57 533.00 205.00 C 498.26 205.43 461.93 204.81 427.00 205.00 C 392.07 205.19 356.96 204.93 322.00 205.00 C 287.04 205.07 251.97 205.00 217.00 205.00 Z"/>
</g>
<g fill="#D4FEFF" fill-opacity="0.08" stroke="None">
<path d="
M 213.00 206.00 
C 213.00 205.50 213.00 205.00 213.00 205.00
C 194.67 205.00 176.33 205.00 158.00 205.00
C 158.00 205.00 157.50 204.97 157.00 205.00
C 173.54 207.69 195.58 207.57 213.00 206.00 Z"/>
</g>
<g fill="#7F8081" fill-opacity="0.58" stroke="None">
<path d="
M 213.00 206.00 
C 213.00 214.50 213.64 223.55 213.00 232.00 C 212.36 240.45 214.71 249.75 213.00 258.00
C 216.62 243.40 215.42 220.66 214.00 205.00
C 214.00 205.00 213.50 205.00 213.00 205.00
C 213.00 205.00 213.00 205.50 213.00 206.00 Z"/>
</g>
<g fill="#C5C6C7" fill-opacity="0.24" stroke="None">
<path d="
M 204.00 273.00 
C 204.23 273.16 204.00 274.00 204.00 274.00
C 205.86 274.09 207.38 272.17 209.00 274.00
C 210.13 270.79 212.79 268.19 216.00 267.00
C 217.62 247.94 217.01 226.18 217.00 206.00
C 217.00 206.00 217.25 205.25 217.00 205.00
C 217.00 205.00 216.50 205.00 216.00 205.00
C 214.26 224.21 225.71 264.82 204.00 273.00 Z"/>
</g>
<g fill="#B9B9B9" fill-opacity="0.11" stroke="None">
<path d="
M 203.00 268.00 
C 208.93 266.53 211.53 263.93 213.00 258.00
C 211.32 259.37 211.56 262.23 210.00 264.00
C 208.35 262.37 203.83 264.82 206.00 267.00
C 204.01 264.30 201.54 268.28 203.00 268.00 Z"/>
</g>
<g fill="#D9D9D9" fill-opacity="0.17" stroke="None">
<path d="
M 105.00 267.00 
C 103.36 264.65 99.65 261.63 99.00 259.00
C 100.00 262.18 101.67 265.37 105.00 267.00 Z"/>
</g>
<g fill="#B6B6B6" fill-opacity="0.31" stroke="None">
<path d="
M 106.00 267.00 
C 110.21 272.51 122.08 267.86 129.00 269.00 C 135.92 270.14 146.39 268.55 154.00 269.00 C 161.61 269.45 171.19 268.94 179.00 269.00 C 186.81 269.06 195.93 269.75 203.00 268.00
C 195.07 269.54 186.02 267.07 178.00 268.00 C 169.98 268.93 160.89 267.07 153.00 268.00 C 145.11 268.93 135.46 266.44 128.00 268.00 C 120.54 269.56 110.96 265.04 106.00 267.00 Z"/>
</g>
<g fill="#555555" fill-opacity="0.85" stroke="None">
<path d="
M 106.00 273.00 
C 107.18 273.53 107.24 273.99 109.00 274.00
C 109.50 274.00 110.50 274.00 111.00 274.00
C 111.23 273.66 111.00 273.00 111.00 273.00
C 114.98 268.88 126.93 272.99 133.00 272.00 C 139.07 271.01 149.53 272.01 156.00 272.00 C 162.47 271.99 172.92 271.02 179.00 272.00 C 185.08 272.98 197.05 268.91 201.00 273.00
C 201.25 273.26 201.00 274.00 201.00 274.00
C 201.50 274.00 202.50 274.00 203.00 274.00
C 203.00 274.00 203.53 274.12 204.00 274.00
C 204.00 274.00 204.23 273.16 204.00 273.00
C 201.19 273.03 203.02 271.95 204.00 271.00
C 197.43 271.03 190.53 270.96 184.00 271.00 C 177.47 271.04 170.41 270.92 164.00 271.00 C 157.59 271.08 150.12 270.84 144.00 271.00 C 137.88 271.16 129.46 270.64 124.00 271.00 C 118.54 271.36 107.77 269.32 110.00 273.00
C 108.69 272.84 107.30 273.21 106.00 273.00 Z"/>
</g>
<g fill="#858585" fill-opacity="0.62" stroke="None">
<path d="
M 111.00 273.00 
C 125.72 271.67 141.21 273.00 156.00 273.00 C 170.79 273.00 186.28 271.67 201.00 273.00
C 197.05 268.91 185.08 272.98 179.00 272.00 C 172.92 271.02 162.47 271.99 156.00 272.00 C 149.53 272.01 139.07 271.01 133.00 272.00 C 126.93 272.99 114.98 268.88 111.00 273.00 Z"/>
</g>
<g fill="#141414" fill-opacity="1.00" stroke="None">
<path d="
M 111.00 274.00 
C 141.00 274.00 171.00 274.00 201.00 274.00
C 201.00 274.00 201.25 273.26 201.00 273.00
C 186.28 271.67 170.79 273.00 156.00 273.00 C 141.21 273.00 125.72 271.67 111.00 273.00
C 111.00 273.00 111.23 273.66 111.00 274.00 Z"/>
</g>
<g fill="#D3D3D3" fill-opacity="0.20" stroke="None">
<path d="
M 203.00 274.00 
C 202.50 274.00 201.50 274.00 201.00 274.00
C 171.00 274.00 141.00 274.00 111.00 274.00
C 110.50 274.00 109.50 274.00 109.00 274.00
C 117.81 276.18 130.36 275.29 140.00 275.00 C 149.64 274.71 162.87 276.50 172.00 275.00 C 181.13 273.50 196.01 279.17 203.00 274.00 Z"/>
</g>
</svg>